<svg xmlns="http://www.w3.org/2000/svg" version="1.1" width="202.7mm" height="147.7mm" viewBox = " 0 0 718.228937 523.3468869999999" >
<!-- Front--> 
<g transform="translate(22.5000185, 22.5000185) " > 
<polygon style="stroke:#000000; fill:none; stroke-width:0.90000074" points="0, 0 32.7756175, 0 32.7756175, 10.62993 65.551235, 10.62993 65.551235, 0 86.81109500000001, 0 86.81109500000001, 10.62993 108.070955, 10.62993 108.070955, 0 129.330815, 0 129.330815, 10.62993 162.10643249999998, 10.62993 162.10643249999998, 0 194.88205, 0 194.88205, 32.7756175 184.25212, 32.7756175 184.25212, 65.551235 194.88205, 65.551235 194.88205, 86.81109500000001 184.25212, 86.81109500000001 184.25212, 108.070955 194.88205, 108.070955 194.88205, 129.330815 184.25212, 129.330815 184.25212, 162.10643249999998 194.88205, 162.10643249999998 194.88205, 194.88205 162.10643249999998, 194.88205 162.10643249999998, 184.25212 129.330815, 184.25212 129.330815, 194.88205 108.070955, 194.88205 108.070955, 184.25212 86.81109500000001, 184.25212 86.81109500000001, 194.88205 65.551235, 194.88205 65.551235, 184.25212 32.7756175, 184.25212 32.7756175, 194.88205 0, 194.88205 0, 162.10643249999998 10.62993, 162.10643249999998 10.62993, 129.330815 0, 129.330815 0, 108.070955 10.62993, 108.070955 10.62993, 86.81109500000001 0, 86.81109500000001 0, 65.551235 10.62993, 65.551235 10.62993, 32.7756175 0, 32.7756175 "/> 
</g>
<!-- Back--> 
<g transform="translate(217.3820685, 22.5000185) " > 
<polygon style="stroke:#000000; fill:none; stroke-width:0.90000074" points="0, 0 32.7756175, 0 32.7756175, 10.62993 65.551235, 10.62993 65.551235, 0 86.81109500000001, 0 86.81109500000001, 10.62993 108.070955, 10.62993 108.070955, 0 129.330815, 0 129.330815, 10.62993 162.10643249999998, 10.62993 162.10643249999998, 0 194.88205, 0 194.88205, 32.7756175 184.25212, 32.7756175 184.25212, 65.551235 194.88205, 65.551235 194.88205, 86.81109500000001 184.25212, 86.81109500000001 184.25212, 108.070955 194.88205, 108.070955 194.88205, 129.330815 184.25212, 129.330815 184.25212, 162.10643249999998 194.88205, 162.10643249999998 194.88205, 194.88205 162.10643249999998, 194.88205 162.10643249999998, 184.25212 129.330815, 184.25212 129.330815, 194.88205 108.070955, 194.88205 108.070955, 184.25212 86.81109500000001, 184.25212 86.81109500000001, 194.88205 65.551235, 194.88205 65.551235, 184.25212 32.7756175, 184.25212 32.7756175, 194.88205 0, 194.88205 0, 162.10643249999998 10.62993, 162.10643249999998 10.62993, 129.330815 0, 129.330815 0, 108.070955 10.62993, 108.070955 10.62993, 86.81109500000001 0, 86.81109500000001 0, 65.551235 10.62993, 65.551235 10.62993, 32.7756175 0, 32.7756175 "/> 
</g>
<!-- Left--> 
<g transform="translate(412.2641185, 22.5000185) " > 
<polygon style="stroke:#000000; fill:none; stroke-width:0.90000074" points="10.62993, 0 33.661445, 0 33.661445, 10.62993 67.32289, 10.62993 67.32289, 0 88.58275, 0 88.58275, 10.62993 109.84261000000001, 10.62993 109.84261000000001, 0 131.10246999999998, 0 131.10246999999998, 10.62993 152.36233, 10.62993 152.36233, 0 173.62219, 0 173.62219, 10.62993 194.88205, 10.62993 194.88205, 0 216.14191, 0 216.14191, 10.62993 249.803355, 10.62993 249.803355, 0 272.83486999999997, 0 272.83486999999997, 32.7756175 283.46479999999997, 32.7756175 283.46479999999997, 65.551235 272.83486999999997, 65.551235 272.83486999999997, 86.81109500000001 283.46479999999997, 86.81109500000001 283.46479999999997, 108.070955 272.83486999999997, 108.070955 272.83486999999997, 129.330815 283.46479999999997, 129.330815 283.46479999999997, 162.10643249999998 272.83486999999997, 162.10643249999998 272.83486999999997, 194.88205 249.803355, 194.88205 249.803355, 184.25212 216.14191, 184.25212 216.14191, 194.88205 194.88205, 194.88205 194.88205, 184.25212 173.62219, 184.25212 173.62219, 194.88205 152.36233, 194.88205 152.36233, 184.25212 131.10246999999998, 184.25212 131.10246999999998, 194.88205 109.84261000000001, 194.88205 109.84261000000001, 184.25212 88.58275, 184.25212 88.58275, 194.88205 67.32289, 194.88205 67.32289, 184.25212 33.661445, 184.25212 33.661445, 194.88205 10.62993, 194.88205 10.62993, 162.10643249999998 0, 162.10643249999998 0, 129.330815 10.62993, 129.330815 10.62993, 108.070955 0, 108.070955 0, 86.81109500000001 10.62993, 86.81109500000001 10.62993, 65.551235 0, 65.551235 0, 32.7756175 10.62993, 32.7756175 "/> 
</g>
<!-- Right--> 
<g transform="translate(412.2641185, 217.3820685) " > 
<polygon style="stroke:#000000; fill:none; stroke-width:0.90000074" points="10.62993, 0 33.661445, 0 33.661445, 10.62993 67.32289, 10.62993 67.32289, 0 88.58275, 0 88.58275, 10.62993 109.84261000000001, 10.62993 109.84261000000001, 0 131.10246999999998, 0 131.10246999999998, 10.62993 152.36233, 10.62993 152.36233, 0 173.62219, 0 173.62219, 10.62993 194.88205, 10.62993 194.88205, 0 216.14191, 0 216.14191, 10.62993 249.803355, 10.62993 249.803355, 0 272.83486999999997, 0 272.83486999999997, 32.7756175 283.46479999999997, 32.7756175 283.46479999999997, 65.551235 272.83486999999997, 65.551235 272.83486999999997, 86.81109500000001 283.46479999999997, 86.81109500000001 283.46479999999997, 108.070955 272.83486999999997, 108.070955 272.83486999999997, 129.330815 283.46479999999997, 129.330815 283.46479999999997, 162.10643249999998 272.83486999999997, 162.10643249999998 272.83486999999997, 194.88205 249.803355, 194.88205 249.803355, 184.25212 216.14191, 184.25212 216.14191, 194.88205 194.88205, 194.88205 194.88205, 184.25212 173.62219, 184.25212 173.62219, 194.88205 152.36233, 194.88205 152.36233, 184.25212 131.10246999999998, 184.25212 131.10246999999998, 194.88205 109.84261000000001, 194.88205 109.84261000000001, 184.25212 88.58275, 184.25212 88.58275, 194.88205 67.32289, 194.88205 67.32289, 184.25212 33.661445, 184.25212 33.661445, 194.88205 10.62993, 194.88205 10.62993, 162.10643249999998 0, 162.10643249999998 0, 129.330815 10.62993, 129.330815 10.62993, 108.070955 0, 108.070955 0, 86.81109500000001 10.62993, 86.81109500000001 10.62993, 65.551235 0, 65.551235 0, 32.7756175 10.62993, 32.7756175 "/> 
</g>
<!-- Top--> 
<g transform="translate(22.5000185, 217.3820685) " > 
<polygon style="stroke:#000000; fill:none; stroke-width:0.90000074" points="10.62993, 10.62993 32.7756175, 10.62993 32.7756175, 0 65.551235, 0 65.551235, 10.62993 86.81109500000001, 10.62993 86.81109500000001, 0 108.070955, 0 108.070955, 10.62993 129.330815, 10.62993 129.330815, 0 162.10643249999998, 0 162.10643249999998, 10.62993 184.25212, 10.62993 184.25212, 33.661445 194.88205, 33.661445 194.88205, 67.32289 184.25212, 67.32289 184.25212, 88.58275 194.88205, 88.58275 194.88205, 109.84261000000001 184.25212, 109.84261000000001 184.25212, 131.10246999999998 194.88205, 131.10246999999998 194.88205, 152.36233 184.25212, 152.36233 184.25212, 173.62219 194.88205, 173.62219 194.88205, 194.88205 184.25212, 194.88205 184.25212, 216.14191 194.88205, 216.14191 194.88205, 249.803355 184.25212, 249.803355 184.25212, 272.83486999999997 162.10643249999998, 272.83486999999997 162.10643249999998, 283.46479999999997 129.330815, 283.46479999999997 129.330815, 272.83486999999997 108.070955, 272.83486999999997 108.070955, 283.46479999999997 86.81109500000001, 283.46479999999997 86.81109500000001, 272.83486999999997 65.551235, 272.83486999999997 65.551235, 283.46479999999997 32.7756175, 283.46479999999997 32.7756175, 272.83486999999997 10.62993, 272.83486999999997 10.62993, 249.803355 0, 249.803355 0, 216.14191 10.62993, 216.14191 10.62993, 194.88205 0, 194.88205 0, 173.62219 10.62993, 173.62219 10.62993, 152.36233 0, 152.36233 0, 131.10246999999998 10.62993, 131.10246999999998 10.62993, 109.84261000000001 0, 109.84261000000001 0, 88.58275 10.62993, 88.58275 10.62993, 67.32289 0, 67.32289 0, 33.661445 10.62993, 33.661445 "/> 
</g>
<!-- Bottom--> 
<g transform="translate(217.3820685, 217.3820685) " > 
<polygon style="stroke:#000000; fill:none; stroke-width:0.90000074" points="10.62993, 10.62993 32.7756175, 10.62993 32.7756175, 0 65.551235, 0 65.551235, 10.62993 86.81109500000001, 10.62993 86.81109500000001, 0 108.070955, 0 108.070955, 10.62993 129.330815, 10.62993 129.330815, 0 162.10643249999998, 0 162.10643249999998, 10.62993 184.25212, 10.62993 184.25212, 33.661445 194.88205, 33.661445 194.88205, 67.32289 184.25212, 67.32289 184.25212, 88.58275 194.88205, 88.58275 194.88205, 109.84261000000001 184.25212, 109.84261000000001 184.25212, 131.10246999999998 194.88205, 131.10246999999998 194.88205, 152.36233 184.25212, 152.36233 184.25212, 173.62219 194.88205, 173.62219 194.88205, 194.88205 184.25212, 194.88205 184.25212, 216.14191 194.88205, 216.14191 194.88205, 249.803355 184.25212, 249.803355 184.25212, 272.83486999999997 162.10643249999998, 272.83486999999997 162.10643249999998, 283.46479999999997 129.330815, 283.46479999999997 129.330815, 272.83486999999997 108.070955, 272.83486999999997 108.070955, 283.46479999999997 86.81109500000001, 283.46479999999997 86.81109500000001, 272.83486999999997 65.551235, 272.83486999999997 65.551235, 283.46479999999997 32.7756175, 283.46479999999997 32.7756175, 272.83486999999997 10.62993, 272.83486999999997 10.62993, 249.803355 0, 249.803355 0, 216.14191 10.62993, 216.14191 10.62993, 194.88205 0, 194.88205 0, 173.62219 10.62993, 173.62219 10.62993, 152.36233 0, 152.36233 0, 131.10246999999998 10.62993, 131.10246999999998 10.62993, 109.84261000000001 0, 109.84261000000001 0, 88.58275 10.62993, 88.58275 10.62993, 67.32289 0, 67.32289 0, 33.661445 10.62993, 33.661445 "/> 
</g></svg>