  0
SECTION
  2
HEADER
  9
$ACADVER
  1
AC1012
  9
$DWGCODEPAGE
  3
gb2312
  9
$INSBASE
 10
0.0
 20
0.0
 30
0.0
  9
$EXTMIN
 10
1.000000000000000E+20
 20
1.000000000000000E+20
 30
1.000000000000000E+20
  9
$EXTMAX
 10
-1.000000000000000E+20
 20
-1.000000000000000E+20
 30
-1.000000000000000E+20
  9
$LIMMIN
 10
0.0
 20
0.0
  9
$LIMMAX
 10
420.0
 20
297.0
  9
$ORTHOMODE
 70
     0
  9
$REGENMODE
 70
     1
  9
$FILLMODE
 70
     1
  9
$QTEXTMODE
 70
     0
  9
$MIRRTEXT
 70
     1
  9
$DRAGMODE
 70
     2
  9
$LTSCALE
 40
1.0
  9
$OSMODE
 70
    37
  9
$ATTMODE
 70
     1
  9
$TEXTSIZE
 40
2.5
  9
$TRACEWID
 40
1.0
  9
$TEXTSTYLE
  7
STANDARD
  9
$CLAYER
  8
0
  9
$CELTYPE
  6
BYLAYER
  9
$CECOLOR
 62
   256
  9
$CELTSCALE
 40
1.0
  9
$DELOBJ
 70
     1
  9
$DISPSILH
 70
     0
  9
$DIMSCALE
 40
1.0
  9
$DIMASZ
 40
2.5
  9
$DIMEXO
 40
0.625
  9
$DIMDLI
 40
3.75
  9
$DIMRND
 40
0.0
  9
$DIMDLE
 40
0.0
  9
$DIMEXE
 40
1.25
  9
$DIMTP
 40
0.0
  9
$DIMTM
 40
0.0
  9
$DIMTXT
 40
2.5
  9
$DIMCEN
 40
2.5
  9
$DIMTSZ
 40
0.0
  9
$DIMTOL
 70
     0
  9
$DIMLIM
 70
     0
  9
$DIMTIH
 70
     0
  9
$DIMTOH
 70
     0
  9
$DIMSE1
 70
     0
  9
$DIMSE2
 70
     0
  9
$DIMTAD
 70
     1
  9
$DIMZIN
 70
     8
  9
$DIMBLK
  1

  9
$DIMASO
 70
     1
  9
$DIMSHO
 70
     1
  9
$DIMPOST
  1

  9
$DIMAPOST
  1

  9
$DIMALT
 70
     0
  9
$DIMALTD
 70
     3
  9
$DIMALTF
 40
0.03937007874016
  9
$DIMLFAC
 40
1.0
  9
$DIMTOFL
 70
     1
  9
$DIMTVP
 40
0.0
  9
$DIMTIX
 70
     0
  9
$DIMSOXD
 70
     0
  9
$DIMSAH
 70
     0
  9
$DIMBLK1
  1

  9
$DIMBLK2
  1

  9
$DIMSTYLE
  2
ISO-25
  9
$DIMCLRD
 70
     0
  9
$DIMCLRE
 70
     0
  9
$DIMCLRT
 70
     0
  9
$DIMTFAC
 40
1.0
  9
$DIMGAP
 40
0.625
  9
$DIMJUST
 70
     0
  9
$DIMSD1
 70
     0
  9
$DIMSD2
 70
     0
  9
$DIMTOLJ
 70
     0
  9
$DIMTZIN
 70
     8
  9
$DIMALTZ
 70
     0
  9
$DIMALTTZ
 70
     0
  9
$DIMFIT
 70
     3
  9
$DIMUPT
 70
     0
  9
$DIMUNIT
 70
     2
  9
$DIMDEC
 70
     2
  9
$DIMTDEC
 70
     2
  9
$DIMALTU
 70
     2
  9
$DIMALTTD
 70
     3
  9
$DIMTXSTY
  7
STANDARD
  9
$DIMAUNIT
 70
     0
  9
$LUNITS
 70
     2
  9
$LUPREC
 70
     4
  9
$SKETCHINC
 40
1.0
  9
$FILLETRAD
 40
10.0
  9
$AUNITS
 70
     0
  9
$AUPREC
 70
     0
  9
$MENU
  1
.
  9
$ELEVATION
 40
0.0
  9
$PELEVATION
 40
0.0
  9
$THICKNESS
 40
0.0
  9
$LIMCHECK
 70
     0
  9
$BLIPMODE
 70
     0
  9
$CHAMFERA
 40
10.0
  9
$CHAMFERB
 40
10.0
  9
$CHAMFERC
 40
20.0
  9
$CHAMFERD
 40
0.0
  9
$SKPOLY
 70
     0
  9
$TDCREATE
 40
2453935.933843252
  9
$TDUPDATE
 40
2453935.934398680
  9
$TDINDWG
 40
0.0005563542
  9
$TDUSRTIMER
 40
0.0005562384
  9
$USRTIMER
 70
     1
  9
$ANGBASE
 50
0.0
  9
$ANGDIR
 70
     0
  9
$PDMODE
 70
     0
  9
$PDSIZE
 40
0.0
  9
$PLINEWID
 40
0.0
  9
$COORDS
 70
     1
  9
$SPLFRAME
 70
     0
  9
$SPLINETYPE
 70
     6
  9
$SPLINESEGS
 70
     8
  9
$ATTDIA
 70
     0
  9
$ATTREQ
 70
     1
  9
$HANDLING
 70
 22529
  9
$HANDSEED
  5
4A
  9
$SURFTAB1
 70
     6
  9
$SURFTAB2
 70
     6
  9
$SURFTYPE
 70
     6
  9
$SURFU
 70
     6
  9
$SURFV
 70
     6
  9
$UCSNAME
  2

  9
$UCSORG
 10
0.0
 20
0.0
 30
0.0
  9
$UCSXDIR
 10
1.0
 20
0.0
 30
0.0
  9
$UCSYDIR
 10
0.0
 20
1.0
 30
0.0
  9
$PUCSNAME
  2

  9
$PUCSORG
 10
0.0
 20
0.0
 30
0.0
  9
$PUCSXDIR
 10
1.0
 20
0.0
 30
0.0
  9
$PUCSYDIR
 10
0.0
 20
1.0
 30
0.0
  9
$USERI1
 70
     0
  9
$USERI2
 70
     0
  9
$USERI3
 70
     0
  9
$USERI4
 70
     0
  9
$USERI5
 70
     0
  9
$USERR1
 40
0.0
  9
$USERR2
 40
0.0
  9
$USERR3
 40
0.0
  9
$USERR4
 40
0.0
  9
$USERR5
 40
0.0
  9
$WORLDVIEW
 70
     1
  9
$SHADEDGE
 70
     3
  9
$SHADEDIF
 70
    70
  9
$TILEMODE
 70
     1
  9
$MAXACTVP
 70
    64
  9
$PINSBASE
 10
0.0
 20
0.0
 30
0.0
  9
$PLIMCHECK
 70
     0
  9
$PEXTMIN
 10
1.000000000000000E+20
 20
1.000000000000000E+20
 30
1.000000000000000E+20
  9
$PEXTMAX
 10
-1.000000000000000E+20
 20
-1.000000000000000E+20
 30
-1.000000000000000E+20
  9
$PLIMMIN
 10
0.0
 20
0.0
  9
$PLIMMAX
 10
420.0
 20
297.0
  9
$UNITMODE
 70
     0
  9
$VISRETAIN
 70
     1
  9
$PLINEGEN
 70
     0
  9
$PSLTSCALE
 70
     1
  9
$TREEDEPTH
 70
  3020
  9
$PICKSTYLE
 70
     1
  9
$CMLSTYLE
  2
STANDARD
  9
$CMLJUST
 70
     0
  9
$CMLSCALE
 40
20.0
  9
$SAVEIMAGES
 70
     1
  0
ENDSEC
  0
SECTION
  2
CLASSES
  0
CLASS
  1
ACDBDICTIONARYWDFLT
  2
AcDbDictionaryWithDefault
  3
AutoCAD 2000
 90
    32768
280
     0
281
     0
  0
CLASS
  1
ACDBPLACEHOLDER
  2
AcDbPlaceHolder
  3
AutoCAD 2000
 90
    32768
280
     0
281
     0
  0
CLASS
  1
LAYOUT
  2
AcDbLayout
  3
AutoCAD 2000
 90
    32768
280
     0
281
     0
  0
CLASS
  1
DICTIONARYVAR
  2
AcDbDictionaryVar
  3
AutoCAD 2000
 90
    32768
280
     0
281
     0
  0
CLASS
  1
LONG_TRANSACTION
  2
AcDbLongTransaction
  3
AutoCAD 2000
 90
    32768
280
     0
281
     0
  0
CLASS
  1
LWPOLYLINE
  2
AcDbPolyline
  3
AutoCAD 2000
 90
    32768
280
     0
281
     1
  0
CLASS
  1
HATCH
  2
AcDbHatch
  3
AutoCAD 2000
 90
    32768
280
     0
281
     1
  0
CLASS
  1
XRECORD
  2
AcDbXrecord
  3
AutoCAD 2000
 90
    32768
280
     0
281
     0
  0
ENDSEC
  0
SECTION
  2
TABLES
  0
TABLE
  2
VPORT
  5
8
330
0
100
AcDbSymbolTable
 70
     2
  0
VPORT
  5
43
330
8
100
AcDbSymbolTableRecord
100
AcDbViewportTableRecord
  2
*ACTIVE
 70
     0
 10
0.0
 20
0.0
 11
1.0
 21
1.0
 12
505.3812210517317
 22
257.5500453436709
 13
0.0
 23
0.0
 14
10.0
 24
10.0
 15
10.0
 25
10.0
 16
0.0
 26
0.0
 36
1.0
 17
0.0
 27
0.0
 37
0.0
 40
515.1000906873419
 41
1.962264150943396
 42
50.0
 43
0.0
 44
0.0
 50
0.0
 51
0.0
 71
     0
 72
   100
 73
     1
 74
     3
 75
     0
 76
     0
 77
     0
 78
     0
  0
ENDTAB
  0
TABLE
  2
LTYPE
  5
5
330
0
100
AcDbSymbolTable
 70
     1
  0
LTYPE
  5
14
330
5
100
AcDbSymbolTableRecord
100
AcDbLinetypeTableRecord
  2
BYBLOCK
 70
     0
  3

 72
    65
 73
     0
 40
0.0
  0
LTYPE
  5
15
330
5
100
AcDbSymbolTableRecord
100
AcDbLinetypeTableRecord
  2
BYLAYER
 70
     0
  3

 72
    65
 73
     0
 40
0.0
  0
LTYPE
  5
16
330
5
100
AcDbSymbolTableRecord
100
AcDbLinetypeTableRecord
  2
CONTINUOUS
 70
     0
  3
Solid line
 72
    65
 73
     0
 40
0.0
  0
ENDTAB
  0
TABLE
  2
LAYER
  5
2
330
0
100
AcDbSymbolTable
 70
     1
  0
LAYER
  5
10
330
2
100
AcDbSymbolTableRecord
100
AcDbLayerTableRecord
  2
0
 70
     0
 62
     7
  6
CONTINUOUS
  0
ENDTAB
  0
TABLE
  2
STYLE
  5
3
330
0
100
AcDbSymbolTable
 70
     1
  0
STYLE
  5
11
330
3
100
AcDbSymbolTableRecord
100
AcDbTextStyleTableRecord
  2
STANDARD
 70
     0
 40
0.0
 41
1.0
 50
0.0
 71
     0
 42
2.5
  3
txt
  4

  0
ENDTAB
  0
TABLE
  2
VIEW
  5
6
330
0
100
AcDbSymbolTable
 70
     0
  0
ENDTAB
  0
TABLE
  2
UCS
  5
7
330
0
100
AcDbSymbolTable
 70
     0
  0
ENDTAB
  0
TABLE
  2
APPID
  5
9
330
0
100
AcDbSymbolTable
 70
     1
  0
APPID
  5
12
330
9
100
AcDbSymbolTableRecord
100
AcDbRegAppTableRecord
  2
ACAD
 70
     0
  0
ENDTAB
  0
TABLE
  2
DIMSTYLE
  5
A
330
0
100
AcDbSymbolTable
 70
     1
  0
DIMSTYLE
105
27
330
A
100
AcDbSymbolTableRecord
100
AcDbDimStyleTableRecord
  2
ISO-25
 70
     0
  3

  4

  5

  6

  7

 40
1.0
 41
2.5
 42
0.625
 43
3.75
 44
1.25
 45
0.0
 46
0.0
 47
0.0
 48
0.0
140
2.5
141
2.5
142
0.0
143
0.03937007874016
144
1.0
145
0.0
146
1.0
147
0.625
 71
     0
 72
     0
 73
     0
 74
     0
 75
     0
 76
     0
 77
     1
 78
     8
170
     0
171
     3
172
     1
173
     0
174
     0
175
     0
176
     0
177
     0
178
     0
270
     2
271
     2
272
     2
273
     2
274
     3
340
11
275
     0
280
     0
281
     0
282
     0
283
     0
284
     8
285
     0
286
     0
287
     3
288
     0
  0
ENDTAB
  0
TABLE
  2
BLOCK_RECORD
  5
1
330
0
100
AcDbSymbolTable
 70
     1
  0
BLOCK_RECORD
  5
1F
102
{ACAD_XDICTIONARY
360
46
102
}
330
1
100
AcDbSymbolTableRecord
100
AcDbBlockTableRecord
  2
*MODEL_SPACE
  0
BLOCK_RECORD
  5
1B
102
{ACAD_XDICTIONARY
360
44
102
}
330
1
100
AcDbSymbolTableRecord
100
AcDbBlockTableRecord
  2
*PAPER_SPACE
  0
ENDTAB
  0
ENDSEC
  0
SECTION
  2
BLOCKS
  0
BLOCK
  5
20
330
1F
100
AcDbEntity
  8
0
100
AcDbBlockBegin
  2
*MODEL_SPACE
 70
     0
 10
0.0
 20
0.0
 30
0.0
  3
*MODEL_SPACE
  1

  0
ENDBLK
  5
21
330
1F
100
AcDbEntity
  8
0
100
AcDbBlockEnd
  0
BLOCK
  5
1C
330
1B
100
AcDbEntity
 67
     1
  8
0
100
AcDbBlockBegin
  2
*PAPER_SPACE
 70
     0
 10
0.0
 20
0.0
 30
0.0
  3
*PAPER_SPACE
  1

  0
ENDBLK
  5
1D
330
1B
100
AcDbEntity
 67
     1
  8
0
100
AcDbBlockEnd
  0
ENDSEC
  0
SECTION
  2
ENTITIES
  0
LINE
  5
100
330
1F
100
AcDbEntity
  8
0
  62
7
100
AcDbLine
 10
676.350000
 20
566.349973
 30
0.000000
 11
685.600010
 21
566.349973
 31
0.000000
  0
LINE
  5
101
330
1F
100
AcDbEntity
  8
0
  62
7
100
AcDbLine
 10
685.600010
 20
566.349973
 30
0.000000
 11
685.600010
 21
563.349986
 31
0.000000
  0
LINE
  5
102
330
1F
100
AcDbEntity
  8
0
  62
7
100
AcDbLine
 10
685.600010
 20
563.349986
 30
0.000000
 11
694.849984
 21
563.349986
 31
0.000000
  0
LINE
  5
103
330
1F
100
AcDbEntity
  8
0
  62
7
100
AcDbLine
 10
694.849984
 20
563.349986
 30
0.000000
 11
694.849984
 21
566.349973
 31
0.000000
  0
LINE
  5
104
330
1F
100
AcDbEntity
  8
0
  62
7
100
AcDbLine
 10
694.849984
 20
566.349973
 30
0.000000
 11
700.849993
 21
566.349973
 31
0.000000
  0
LINE
  5
105
330
1F
100
AcDbEntity
  8
0
  62
7
100
AcDbLine
 10
700.849993
 20
566.349973
 30
0.000000
 11
700.849993
 21
563.349986
 31
0.000000
  0
LINE
  5
106
330
1F
100
AcDbEntity
  8
0
  62
7
100
AcDbLine
 10
700.849993
 20
563.349986
 30
0.000000
 11
706.850002
 21
563.349986
 31
0.000000
  0
LINE
  5
107
330
1F
100
AcDbEntity
  8
0
  62
7
100
AcDbLine
 10
706.850002
 20
563.349986
 30
0.000000
 11
706.850002
 21
566.349973
 31
0.000000
  0
LINE
  5
108
330
1F
100
AcDbEntity
  8
0
  62
7
100
AcDbLine
 10
706.850002
 20
566.349973
 30
0.000000
 11
712.850011
 21
566.349973
 31
0.000000
  0
LINE
  5
109
330
1F
100
AcDbEntity
  8
0
  62
7
100
AcDbLine
 10
712.850011
 20
566.349973
 30
0.000000
 11
712.850011
 21
563.349986
 31
0.000000
  0
LINE
  5
110
330
1F
100
AcDbEntity
  8
0
  62
7
100
AcDbLine
 10
712.850011
 20
563.349986
 30
0.000000
 11
722.099986
 21
563.349986
 31
0.000000
  0
LINE
  5
111
330
1F
100
AcDbEntity
  8
0
  62
7
100
AcDbLine
 10
722.099986
 20
563.349986
 30
0.000000
 11
722.099986
 21
566.349973
 31
0.000000
  0
LINE
  5
112
330
1F
100
AcDbEntity
  8
0
  62
7
100
AcDbLine
 10
722.099986
 20
566.349973
 30
0.000000
 11
731.349994
 21
566.349973
 31
0.000000
  0
LINE
  5
113
330
1F
100
AcDbEntity
  8
0
  62
7
100
AcDbLine
 10
731.349994
 20
566.349973
 30
0.000000
 11
731.349994
 21
557.099999
 31
0.000000
  0
LINE
  5
114
330
1F
100
AcDbEntity
  8
0
  62
7
100
AcDbLine
 10
731.349994
 20
557.099999
 30
0.000000
 11
728.350007
 21
557.099999
 31
0.000000
  0
LINE
  5
115
330
1F
100
AcDbEntity
  8
0
  62
7
100
AcDbLine
 10
728.350007
 20
557.099999
 30
0.000000
 11
728.350007
 21
547.849990
 31
0.000000
  0
LINE
  5
116
330
1F
100
AcDbEntity
  8
0
  62
7
100
AcDbLine
 10
728.350007
 20
547.849990
 30
0.000000
 11
731.349994
 21
547.849990
 31
0.000000
  0
LINE
  5
117
330
1F
100
AcDbEntity
  8
0
  62
7
100
AcDbLine
 10
731.349994
 20
547.849990
 30
0.000000
 11
731.349994
 21
541.849981
 31
0.000000
  0
LINE
  5
118
330
1F
100
AcDbEntity
  8
0
  62
7
100
AcDbLine
 10
731.349994
 20
541.849981
 30
0.000000
 11
728.350007
 21
541.849981
 31
0.000000
  0
LINE
  5
119
330
1F
100
AcDbEntity
  8
0
  62
7
100
AcDbLine
 10
728.350007
 20
541.849981
 30
0.000000
 11
728.350007
 21
535.849972
 31
0.000000
  0
LINE
  5
120
330
1F
100
AcDbEntity
  8
0
  62
7
100
AcDbLine
 10
728.350007
 20
535.849972
 30
0.000000
 11
731.349994
 21
535.849972
 31
0.000000
  0
LINE
  5
121
330
1F
100
AcDbEntity
  8
0
  62
7
100
AcDbLine
 10
731.349994
 20
535.849972
 30
0.000000
 11
731.349994
 21
529.849998
 31
0.000000
  0
LINE
  5
122
330
1F
100
AcDbEntity
  8
0
  62
7
100
AcDbLine
 10
731.349994
 20
529.849998
 30
0.000000
 11
728.350007
 21
529.849998
 31
0.000000
  0
LINE
  5
123
330
1F
100
AcDbEntity
  8
0
  62
7
100
AcDbLine
 10
728.350007
 20
529.849998
 30
0.000000
 11
728.350007
 21
520.599988
 31
0.000000
  0
LINE
  5
124
330
1F
100
AcDbEntity
  8
0
  62
7
100
AcDbLine
 10
728.350007
 20
520.599988
 30
0.000000
 11
731.349994
 21
520.599988
 31
0.000000
  0
LINE
  5
125
330
1F
100
AcDbEntity
  8
0
  62
7
100
AcDbLine
 10
731.349994
 20
520.599988
 30
0.000000
 11
731.349994
 21
511.349979
 31
0.000000
  0
LINE
  5
126
330
1F
100
AcDbEntity
  8
0
  62
7
100
AcDbLine
 10
731.349994
 20
511.349979
 30
0.000000
 11
722.099986
 21
511.349979
 31
0.000000
  0
LINE
  5
127
330
1F
100
AcDbEntity
  8
0
  62
7
100
AcDbLine
 10
722.099986
 20
511.349979
 30
0.000000
 11
722.099986
 21
514.350001
 31
0.000000
  0
LINE
  5
128
330
1F
100
AcDbEntity
  8
0
  62
7
100
AcDbLine
 10
722.099986
 20
514.350001
 30
0.000000
 11
712.850011
 21
514.350001
 31
0.000000
  0
LINE
  5
129
330
1F
100
AcDbEntity
  8
0
  62
7
100
AcDbLine
 10
712.850011
 20
514.350001
 30
0.000000
 11
712.850011
 21
511.349979
 31
0.000000
  0
LINE
  5
130
330
1F
100
AcDbEntity
  8
0
  62
7
100
AcDbLine
 10
712.850011
 20
511.349979
 30
0.000000
 11
706.850002
 21
511.349979
 31
0.000000
  0
LINE
  5
131
330
1F
100
AcDbEntity
  8
0
  62
7
100
AcDbLine
 10
706.850002
 20
511.349979
 30
0.000000
 11
706.850002
 21
514.350001
 31
0.000000
  0
LINE
  5
132
330
1F
100
AcDbEntity
  8
0
  62
7
100
AcDbLine
 10
706.850002
 20
514.350001
 30
0.000000
 11
700.849993
 21
514.350001
 31
0.000000
  0
LINE
  5
133
330
1F
100
AcDbEntity
  8
0
  62
7
100
AcDbLine
 10
700.849993
 20
514.350001
 30
0.000000
 11
700.849993
 21
511.349979
 31
0.000000
  0
LINE
  5
134
330
1F
100
AcDbEntity
  8
0
  62
7
100
AcDbLine
 10
700.849993
 20
511.349979
 30
0.000000
 11
694.849984
 21
511.349979
 31
0.000000
  0
LINE
  5
135
330
1F
100
AcDbEntity
  8
0
  62
7
100
AcDbLine
 10
694.849984
 20
511.349979
 30
0.000000
 11
694.849984
 21
514.350001
 31
0.000000
  0
LINE
  5
136
330
1F
100
AcDbEntity
  8
0
  62
7
100
AcDbLine
 10
694.849984
 20
514.350001
 30
0.000000
 11
685.600010
 21
514.350001
 31
0.000000
  0
LINE
  5
137
330
1F
100
AcDbEntity
  8
0
  62
7
100
AcDbLine
 10
685.600010
 20
514.350001
 30
0.000000
 11
685.600010
 21
511.349979
 31
0.000000
  0
LINE
  5
138
330
1F
100
AcDbEntity
  8
0
  62
7
100
AcDbLine
 10
685.600010
 20
511.349979
 30
0.000000
 11
676.350000
 21
511.349979
 31
0.000000
  0
LINE
  5
139
330
1F
100
AcDbEntity
  8
0
  62
7
100
AcDbLine
 10
676.350000
 20
511.349979
 30
0.000000
 11
676.350000
 21
520.599988
 31
0.000000
  0
LINE
  5
140
330
1F
100
AcDbEntity
  8
0
  62
7
100
AcDbLine
 10
676.350000
 20
520.599988
 30
0.000000
 11
679.349987
 21
520.599988
 31
0.000000
  0
LINE
  5
141
330
1F
100
AcDbEntity
  8
0
  62
7
100
AcDbLine
 10
679.349987
 20
520.599988
 30
0.000000
 11
679.349987
 21
529.849998
 31
0.000000
  0
LINE
  5
142
330
1F
100
AcDbEntity
  8
0
  62
7
100
AcDbLine
 10
679.349987
 20
529.849998
 30
0.000000
 11
676.350000
 21
529.849998
 31
0.000000
  0
LINE
  5
143
330
1F
100
AcDbEntity
  8
0
  62
7
100
AcDbLine
 10
676.350000
 20
529.849998
 30
0.000000
 11
676.350000
 21
535.849972
 31
0.000000
  0
LINE
  5
144
330
1F
100
AcDbEntity
  8
0
  62
7
100
AcDbLine
 10
676.350000
 20
535.849972
 30
0.000000
 11
679.349987
 21
535.849972
 31
0.000000
  0
LINE
  5
145
330
1F
100
AcDbEntity
  8
0
  62
7
100
AcDbLine
 10
679.349987
 20
535.849972
 30
0.000000
 11
679.349987
 21
541.849981
 31
0.000000
  0
LINE
  5
146
330
1F
100
AcDbEntity
  8
0
  62
7
100
AcDbLine
 10
679.349987
 20
541.849981
 30
0.000000
 11
676.350000
 21
541.849981
 31
0.000000
  0
LINE
  5
147
330
1F
100
AcDbEntity
  8
0
  62
7
100
AcDbLine
 10
676.350000
 20
541.849981
 30
0.000000
 11
676.350000
 21
547.849990
 31
0.000000
  0
LINE
  5
148
330
1F
100
AcDbEntity
  8
0
  62
7
100
AcDbLine
 10
676.350000
 20
547.849990
 30
0.000000
 11
679.349987
 21
547.849990
 31
0.000000
  0
LINE
  5
149
330
1F
100
AcDbEntity
  8
0
  62
7
100
AcDbLine
 10
679.349987
 20
547.849990
 30
0.000000
 11
679.349987
 21
557.099999
 31
0.000000
  0
LINE
  5
150
330
1F
100
AcDbEntity
  8
0
  62
7
100
AcDbLine
 10
679.349987
 20
557.099999
 30
0.000000
 11
676.350000
 21
557.099999
 31
0.000000
  0
LINE
  5
151
330
1F
100
AcDbEntity
  8
0
  62
7
100
AcDbLine
 10
676.350000
 20
557.099999
 30
0.000000
 11
676.350000
 21
566.349973
 31
0.000000
  0
LINE
  5
152
330
1F
100
AcDbEntity
  8
0
  62
7
100
AcDbLine
 10
731.349994
 20
566.349973
 30
0.000000
 11
740.600006
 21
566.349973
 31
0.000000
  0
LINE
  5
153
330
1F
100
AcDbEntity
  8
0
  62
7
100
AcDbLine
 10
740.600006
 20
566.349973
 30
0.000000
 11
740.600006
 21
563.349986
 31
0.000000
  0
LINE
  5
154
330
1F
100
AcDbEntity
  8
0
  62
7
100
AcDbLine
 10
740.600006
 20
563.349986
 30
0.000000
 11
749.849978
 21
563.349986
 31
0.000000
  0
LINE
  5
155
330
1F
100
AcDbEntity
  8
0
  62
7
100
AcDbLine
 10
749.849978
 20
563.349986
 30
0.000000
 11
749.849978
 21
566.349973
 31
0.000000
  0
LINE
  5
156
330
1F
100
AcDbEntity
  8
0
  62
7
100
AcDbLine
 10
749.849978
 20
566.349973
 30
0.000000
 11
755.849987
 21
566.349973
 31
0.000000
  0
LINE
  5
157
330
1F
100
AcDbEntity
  8
0
  62
7
100
AcDbLine
 10
755.849987
 20
566.349973
 30
0.000000
 11
755.849987
 21
563.349986
 31
0.000000
  0
LINE
  5
158
330
1F
100
AcDbEntity
  8
0
  62
7
100
AcDbLine
 10
755.849987
 20
563.349986
 30
0.000000
 11
761.849996
 21
563.349986
 31
0.000000
  0
LINE
  5
159
330
1F
100
AcDbEntity
  8
0
  62
7
100
AcDbLine
 10
761.849996
 20
563.349986
 30
0.000000
 11
761.849996
 21
566.349973
 31
0.000000
  0
LINE
  5
160
330
1F
100
AcDbEntity
  8
0
  62
7
100
AcDbLine
 10
761.849996
 20
566.349973
 30
0.000000
 11
767.850005
 21
566.349973
 31
0.000000
  0
LINE
  5
161
330
1F
100
AcDbEntity
  8
0
  62
7
100
AcDbLine
 10
767.850005
 20
566.349973
 30
0.000000
 11
767.850005
 21
563.349986
 31
0.000000
  0
LINE
  5
162
330
1F
100
AcDbEntity
  8
0
  62
7
100
AcDbLine
 10
767.850005
 20
563.349986
 30
0.000000
 11
777.099979
 21
563.349986
 31
0.000000
  0
LINE
  5
163
330
1F
100
AcDbEntity
  8
0
  62
7
100
AcDbLine
 10
777.099979
 20
563.349986
 30
0.000000
 11
777.099979
 21
566.349973
 31
0.000000
  0
LINE
  5
164
330
1F
100
AcDbEntity
  8
0
  62
7
100
AcDbLine
 10
777.099979
 20
566.349973
 30
0.000000
 11
786.349992
 21
566.349973
 31
0.000000
  0
LINE
  5
165
330
1F
100
AcDbEntity
  8
0
  62
7
100
AcDbLine
 10
786.349992
 20
566.349973
 30
0.000000
 11
786.349992
 21
557.099999
 31
0.000000
  0
LINE
  5
166
330
1F
100
AcDbEntity
  8
0
  62
7
100
AcDbLine
 10
786.349992
 20
557.099999
 30
0.000000
 11
783.350002
 21
557.099999
 31
0.000000
  0
LINE
  5
167
330
1F
100
AcDbEntity
  8
0
  62
7
100
AcDbLine
 10
783.350002
 20
557.099999
 30
0.000000
 11
783.350002
 21
547.849990
 31
0.000000
  0
LINE
  5
168
330
1F
100
AcDbEntity
  8
0
  62
7
100
AcDbLine
 10
783.350002
 20
547.849990
 30
0.000000
 11
786.349992
 21
547.849990
 31
0.000000
  0
LINE
  5
169
330
1F
100
AcDbEntity
  8
0
  62
7
100
AcDbLine
 10
786.349992
 20
547.849990
 30
0.000000
 11
786.349992
 21
541.849981
 31
0.000000
  0
LINE
  5
170
330
1F
100
AcDbEntity
  8
0
  62
7
100
AcDbLine
 10
786.349992
 20
541.849981
 30
0.000000
 11
783.350002
 21
541.849981
 31
0.000000
  0
LINE
  5
171
330
1F
100
AcDbEntity
  8
0
  62
7
100
AcDbLine
 10
783.350002
 20
541.849981
 30
0.000000
 11
783.350002
 21
535.849972
 31
0.000000
  0
LINE
  5
172
330
1F
100
AcDbEntity
  8
0
  62
7
100
AcDbLine
 10
783.350002
 20
535.849972
 30
0.000000
 11
786.349992
 21
535.849972
 31
0.000000
  0
LINE
  5
173
330
1F
100
AcDbEntity
  8
0
  62
7
100
AcDbLine
 10
786.349992
 20
535.849972
 30
0.000000
 11
786.349992
 21
529.849998
 31
0.000000
  0
LINE
  5
174
330
1F
100
AcDbEntity
  8
0
  62
7
100
AcDbLine
 10
786.349992
 20
529.849998
 30
0.000000
 11
783.350002
 21
529.849998
 31
0.000000
  0
LINE
  5
175
330
1F
100
AcDbEntity
  8
0
  62
7
100
AcDbLine
 10
783.350002
 20
529.849998
 30
0.000000
 11
783.350002
 21
520.599988
 31
0.000000
  0
LINE
  5
176
330
1F
100
AcDbEntity
  8
0
  62
7
100
AcDbLine
 10
783.350002
 20
520.599988
 30
0.000000
 11
786.349992
 21
520.599988
 31
0.000000
  0
LINE
  5
177
330
1F
100
AcDbEntity
  8
0
  62
7
100
AcDbLine
 10
786.349992
 20
520.599988
 30
0.000000
 11
786.349992
 21
511.349979
 31
0.000000
  0
LINE
  5
178
330
1F
100
AcDbEntity
  8
0
  62
7
100
AcDbLine
 10
786.349992
 20
511.349979
 30
0.000000
 11
777.099979
 21
511.349979
 31
0.000000
  0
LINE
  5
179
330
1F
100
AcDbEntity
  8
0
  62
7
100
AcDbLine
 10
777.099979
 20
511.349979
 30
0.000000
 11
777.099979
 21
514.350001
 31
0.000000
  0
LINE
  5
180
330
1F
100
AcDbEntity
  8
0
  62
7
100
AcDbLine
 10
777.099979
 20
514.350001
 30
0.000000
 11
767.850005
 21
514.350001
 31
0.000000
  0
LINE
  5
181
330
1F
100
AcDbEntity
  8
0
  62
7
100
AcDbLine
 10
767.850005
 20
514.350001
 30
0.000000
 11
767.850005
 21
511.349979
 31
0.000000
  0
LINE
  5
182
330
1F
100
AcDbEntity
  8
0
  62
7
100
AcDbLine
 10
767.850005
 20
511.349979
 30
0.000000
 11
761.849996
 21
511.349979
 31
0.000000
  0
LINE
  5
183
330
1F
100
AcDbEntity
  8
0
  62
7
100
AcDbLine
 10
761.849996
 20
511.349979
 30
0.000000
 11
761.849996
 21
514.350001
 31
0.000000
  0
LINE
  5
184
330
1F
100
AcDbEntity
  8
0
  62
7
100
AcDbLine
 10
761.849996
 20
514.350001
 30
0.000000
 11
755.849987
 21
514.350001
 31
0.000000
  0
LINE
  5
185
330
1F
100
AcDbEntity
  8
0
  62
7
100
AcDbLine
 10
755.849987
 20
514.350001
 30
0.000000
 11
755.849987
 21
511.349979
 31
0.000000
  0
LINE
  5
186
330
1F
100
AcDbEntity
  8
0
  62
7
100
AcDbLine
 10
755.849987
 20
511.349979
 30
0.000000
 11
749.849978
 21
511.349979
 31
0.000000
  0
LINE
  5
187
330
1F
100
AcDbEntity
  8
0
  62
7
100
AcDbLine
 10
749.849978
 20
511.349979
 30
0.000000
 11
749.849978
 21
514.350001
 31
0.000000
  0
LINE
  5
188
330
1F
100
AcDbEntity
  8
0
  62
7
100
AcDbLine
 10
749.849978
 20
514.350001
 30
0.000000
 11
740.600006
 21
514.350001
 31
0.000000
  0
LINE
  5
189
330
1F
100
AcDbEntity
  8
0
  62
7
100
AcDbLine
 10
740.600006
 20
514.350001
 30
0.000000
 11
740.600006
 21
511.349979
 31
0.000000
  0
LINE
  5
190
330
1F
100
AcDbEntity
  8
0
  62
7
100
AcDbLine
 10
740.600006
 20
511.349979
 30
0.000000
 11
731.349994
 21
511.349979
 31
0.000000
  0
LINE
  5
191
330
1F
100
AcDbEntity
  8
0
  62
7
100
AcDbLine
 10
731.349994
 20
511.349979
 30
0.000000
 11
731.349994
 21
520.599988
 31
0.000000
  0
LINE
  5
192
330
1F
100
AcDbEntity
  8
0
  62
7
100
AcDbLine
 10
731.349994
 20
520.599988
 30
0.000000
 11
734.349981
 21
520.599988
 31
0.000000
  0
LINE
  5
193
330
1F
100
AcDbEntity
  8
0
  62
7
100
AcDbLine
 10
734.349981
 20
520.599988
 30
0.000000
 11
734.349981
 21
529.849998
 31
0.000000
  0
LINE
  5
194
330
1F
100
AcDbEntity
  8
0
  62
7
100
AcDbLine
 10
734.349981
 20
529.849998
 30
0.000000
 11
731.349994
 21
529.849998
 31
0.000000
  0
LINE
  5
195
330
1F
100
AcDbEntity
  8
0
  62
7
100
AcDbLine
 10
731.349994
 20
529.849998
 30
0.000000
 11
731.349994
 21
535.849972
 31
0.000000
  0
LINE
  5
196
330
1F
100
AcDbEntity
  8
0
  62
7
100
AcDbLine
 10
731.349994
 20
535.849972
 30
0.000000
 11
734.349981
 21
535.849972
 31
0.000000
  0
LINE
  5
197
330
1F
100
AcDbEntity
  8
0
  62
7
100
AcDbLine
 10
734.349981
 20
535.849972
 30
0.000000
 11
734.349981
 21
541.849981
 31
0.000000
  0
LINE
  5
198
330
1F
100
AcDbEntity
  8
0
  62
7
100
AcDbLine
 10
734.349981
 20
541.849981
 30
0.000000
 11
731.349994
 21
541.849981
 31
0.000000
  0
LINE
  5
199
330
1F
100
AcDbEntity
  8
0
  62
7
100
AcDbLine
 10
731.349994
 20
541.849981
 30
0.000000
 11
731.349994
 21
547.849990
 31
0.000000
  0
LINE
  5
200
330
1F
100
AcDbEntity
  8
0
  62
7
100
AcDbLine
 10
731.349994
 20
547.849990
 30
0.000000
 11
734.349981
 21
547.849990
 31
0.000000
  0
LINE
  5
201
330
1F
100
AcDbEntity
  8
0
  62
7
100
AcDbLine
 10
734.349981
 20
547.849990
 30
0.000000
 11
734.349981
 21
557.099999
 31
0.000000
  0
LINE
  5
202
330
1F
100
AcDbEntity
  8
0
  62
7
100
AcDbLine
 10
734.349981
 20
557.099999
 30
0.000000
 11
731.349994
 21
557.099999
 31
0.000000
  0
LINE
  5
203
330
1F
100
AcDbEntity
  8
0
  62
7
100
AcDbLine
 10
731.349994
 20
557.099999
 30
0.000000
 11
731.349994
 21
566.349973
 31
0.000000
  0
LINE
  5
204
330
1F
100
AcDbEntity
  8
0
  62
7
100
AcDbLine
 10
789.349976
 20
566.349973
 30
0.000000
 11
795.849977
 21
566.349973
 31
0.000000
  0
LINE
  5
205
330
1F
100
AcDbEntity
  8
0
  62
7
100
AcDbLine
 10
795.849977
 20
566.349973
 30
0.000000
 11
795.849977
 21
563.349986
 31
0.000000
  0
LINE
  5
206
330
1F
100
AcDbEntity
  8
0
  62
7
100
AcDbLine
 10
795.849977
 20
563.349986
 30
0.000000
 11
805.350000
 21
563.349986
 31
0.000000
  0
LINE
  5
207
330
1F
100
AcDbEntity
  8
0
  62
7
100
AcDbLine
 10
805.350000
 20
563.349986
 30
0.000000
 11
805.350000
 21
566.349973
 31
0.000000
  0
LINE
  5
208
330
1F
100
AcDbEntity
  8
0
  62
7
100
AcDbLine
 10
805.350000
 20
566.349973
 30
0.000000
 11
811.350009
 21
566.349973
 31
0.000000
  0
LINE
  5
209
330
1F
100
AcDbEntity
  8
0
  62
7
100
AcDbLine
 10
811.350009
 20
566.349973
 30
0.000000
 11
811.350009
 21
563.349986
 31
0.000000
  0
LINE
  5
210
330
1F
100
AcDbEntity
  8
0
  62
7
100
AcDbLine
 10
811.350009
 20
563.349986
 30
0.000000
 11
817.349986
 21
563.349986
 31
0.000000
  0
LINE
  5
211
330
1F
100
AcDbEntity
  8
0
  62
7
100
AcDbLine
 10
817.349986
 20
563.349986
 30
0.000000
 11
817.349986
 21
566.349973
 31
0.000000
  0
LINE
  5
212
330
1F
100
AcDbEntity
  8
0
  62
7
100
AcDbLine
 10
817.349986
 20
566.349973
 30
0.000000
 11
823.349991
 21
566.349973
 31
0.000000
  0
LINE
  5
213
330
1F
100
AcDbEntity
  8
0
  62
7
100
AcDbLine
 10
823.349991
 20
566.349973
 30
0.000000
 11
823.349991
 21
563.349986
 31
0.000000
  0
LINE
  5
214
330
1F
100
AcDbEntity
  8
0
  62
7
100
AcDbLine
 10
823.349991
 20
563.349986
 30
0.000000
 11
829.350000
 21
563.349986
 31
0.000000
  0
LINE
  5
215
330
1F
100
AcDbEntity
  8
0
  62
7
100
AcDbLine
 10
829.350000
 20
563.349986
 30
0.000000
 11
829.350000
 21
566.349973
 31
0.000000
  0
LINE
  5
216
330
1F
100
AcDbEntity
  8
0
  62
7
100
AcDbLine
 10
829.350000
 20
566.349973
 30
0.000000
 11
835.349974
 21
566.349973
 31
0.000000
  0
LINE
  5
217
330
1F
100
AcDbEntity
  8
0
  62
7
100
AcDbLine
 10
835.349974
 20
566.349973
 30
0.000000
 11
835.349974
 21
563.349986
 31
0.000000
  0
LINE
  5
218
330
1F
100
AcDbEntity
  8
0
  62
7
100
AcDbLine
 10
835.349974
 20
563.349986
 30
0.000000
 11
841.349983
 21
563.349986
 31
0.000000
  0
LINE
  5
219
330
1F
100
AcDbEntity
  8
0
  62
7
100
AcDbLine
 10
841.349983
 20
563.349986
 30
0.000000
 11
841.349983
 21
566.349973
 31
0.000000
  0
LINE
  5
220
330
1F
100
AcDbEntity
  8
0
  62
7
100
AcDbLine
 10
841.349983
 20
566.349973
 30
0.000000
 11
847.349992
 21
566.349973
 31
0.000000
  0
LINE
  5
221
330
1F
100
AcDbEntity
  8
0
  62
7
100
AcDbLine
 10
847.349992
 20
566.349973
 30
0.000000
 11
847.349992
 21
563.349986
 31
0.000000
  0
LINE
  5
222
330
1F
100
AcDbEntity
  8
0
  62
7
100
AcDbLine
 10
847.349992
 20
563.349986
 30
0.000000
 11
856.849980
 21
563.349986
 31
0.000000
  0
LINE
  5
223
330
1F
100
AcDbEntity
  8
0
  62
7
100
AcDbLine
 10
856.849980
 20
563.349986
 30
0.000000
 11
856.849980
 21
566.349973
 31
0.000000
  0
LINE
  5
224
330
1F
100
AcDbEntity
  8
0
  62
7
100
AcDbLine
 10
856.849980
 20
566.349973
 30
0.000000
 11
863.349981
 21
566.349973
 31
0.000000
  0
LINE
  5
225
330
1F
100
AcDbEntity
  8
0
  62
7
100
AcDbLine
 10
863.349981
 20
566.349973
 30
0.000000
 11
863.349981
 21
557.099999
 31
0.000000
  0
LINE
  5
226
330
1F
100
AcDbEntity
  8
0
  62
7
100
AcDbLine
 10
863.349981
 20
557.099999
 30
0.000000
 11
866.350003
 21
557.099999
 31
0.000000
  0
LINE
  5
227
330
1F
100
AcDbEntity
  8
0
  62
7
100
AcDbLine
 10
866.350003
 20
557.099999
 30
0.000000
 11
866.350003
 21
547.849990
 31
0.000000
  0
LINE
  5
228
330
1F
100
AcDbEntity
  8
0
  62
7
100
AcDbLine
 10
866.350003
 20
547.849990
 30
0.000000
 11
863.349981
 21
547.849990
 31
0.000000
  0
LINE
  5
229
330
1F
100
AcDbEntity
  8
0
  62
7
100
AcDbLine
 10
863.349981
 20
547.849990
 30
0.000000
 11
863.349981
 21
541.849981
 31
0.000000
  0
LINE
  5
230
330
1F
100
AcDbEntity
  8
0
  62
7
100
AcDbLine
 10
863.349981
 20
541.849981
 30
0.000000
 11
866.350003
 21
541.849981
 31
0.000000
  0
LINE
  5
231
330
1F
100
AcDbEntity
  8
0
  62
7
100
AcDbLine
 10
866.350003
 20
541.849981
 30
0.000000
 11
866.350003
 21
535.849972
 31
0.000000
  0
LINE
  5
232
330
1F
100
AcDbEntity
  8
0
  62
7
100
AcDbLine
 10
866.350003
 20
535.849972
 30
0.000000
 11
863.349981
 21
535.849972
 31
0.000000
  0
LINE
  5
233
330
1F
100
AcDbEntity
  8
0
  62
7
100
AcDbLine
 10
863.349981
 20
535.849972
 30
0.000000
 11
863.349981
 21
529.849998
 31
0.000000
  0
LINE
  5
234
330
1F
100
AcDbEntity
  8
0
  62
7
100
AcDbLine
 10
863.349981
 20
529.849998
 30
0.000000
 11
866.350003
 21
529.849998
 31
0.000000
  0
LINE
  5
235
330
1F
100
AcDbEntity
  8
0
  62
7
100
AcDbLine
 10
866.350003
 20
529.849998
 30
0.000000
 11
866.350003
 21
520.599988
 31
0.000000
  0
LINE
  5
236
330
1F
100
AcDbEntity
  8
0
  62
7
100
AcDbLine
 10
866.350003
 20
520.599988
 30
0.000000
 11
863.349981
 21
520.599988
 31
0.000000
  0
LINE
  5
237
330
1F
100
AcDbEntity
  8
0
  62
7
100
AcDbLine
 10
863.349981
 20
520.599988
 30
0.000000
 11
863.349981
 21
511.349979
 31
0.000000
  0
LINE
  5
238
330
1F
100
AcDbEntity
  8
0
  62
7
100
AcDbLine
 10
863.349981
 20
511.349979
 30
0.000000
 11
856.849980
 21
511.349979
 31
0.000000
  0
LINE
  5
239
330
1F
100
AcDbEntity
  8
0
  62
7
100
AcDbLine
 10
856.849980
 20
511.349979
 30
0.000000
 11
856.849980
 21
514.350001
 31
0.000000
  0
LINE
  5
240
330
1F
100
AcDbEntity
  8
0
  62
7
100
AcDbLine
 10
856.849980
 20
514.350001
 30
0.000000
 11
847.349992
 21
514.350001
 31
0.000000
  0
LINE
  5
241
330
1F
100
AcDbEntity
  8
0
  62
7
100
AcDbLine
 10
847.349992
 20
514.350001
 30
0.000000
 11
847.349992
 21
511.349979
 31
0.000000
  0
LINE
  5
242
330
1F
100
AcDbEntity
  8
0
  62
7
100
AcDbLine
 10
847.349992
 20
511.349979
 30
0.000000
 11
841.349983
 21
511.349979
 31
0.000000
  0
LINE
  5
243
330
1F
100
AcDbEntity
  8
0
  62
7
100
AcDbLine
 10
841.349983
 20
511.349979
 30
0.000000
 11
841.349983
 21
514.350001
 31
0.000000
  0
LINE
  5
244
330
1F
100
AcDbEntity
  8
0
  62
7
100
AcDbLine
 10
841.349983
 20
514.350001
 30
0.000000
 11
835.349974
 21
514.350001
 31
0.000000
  0
LINE
  5
245
330
1F
100
AcDbEntity
  8
0
  62
7
100
AcDbLine
 10
835.349974
 20
514.350001
 30
0.000000
 11
835.349974
 21
511.349979
 31
0.000000
  0
LINE
  5
246
330
1F
100
AcDbEntity
  8
0
  62
7
100
AcDbLine
 10
835.349974
 20
511.349979
 30
0.000000
 11
829.350000
 21
511.349979
 31
0.000000
  0
LINE
  5
247
330
1F
100
AcDbEntity
  8
0
  62
7
100
AcDbLine
 10
829.350000
 20
511.349979
 30
0.000000
 11
829.350000
 21
514.350001
 31
0.000000
  0
LINE
  5
248
330
1F
100
AcDbEntity
  8
0
  62
7
100
AcDbLine
 10
829.350000
 20
514.350001
 30
0.000000
 11
823.349991
 21
514.350001
 31
0.000000
  0
LINE
  5
249
330
1F
100
AcDbEntity
  8
0
  62
7
100
AcDbLine
 10
823.349991
 20
514.350001
 30
0.000000
 11
823.349991
 21
511.349979
 31
0.000000
  0
LINE
  5
250
330
1F
100
AcDbEntity
  8
0
  62
7
100
AcDbLine
 10
823.349991
 20
511.349979
 30
0.000000
 11
817.349986
 21
511.349979
 31
0.000000
  0
LINE
  5
251
330
1F
100
AcDbEntity
  8
0
  62
7
100
AcDbLine
 10
817.349986
 20
511.349979
 30
0.000000
 11
817.349986
 21
514.350001
 31
0.000000
  0
LINE
  5
252
330
1F
100
AcDbEntity
  8
0
  62
7
100
AcDbLine
 10
817.349986
 20
514.350001
 30
0.000000
 11
811.350009
 21
514.350001
 31
0.000000
  0
LINE
  5
253
330
1F
100
AcDbEntity
  8
0
  62
7
100
AcDbLine
 10
811.350009
 20
514.350001
 30
0.000000
 11
811.350009
 21
511.349979
 31
0.000000
  0
LINE
  5
254
330
1F
100
AcDbEntity
  8
0
  62
7
100
AcDbLine
 10
811.350009
 20
511.349979
 30
0.000000
 11
805.350000
 21
511.349979
 31
0.000000
  0
LINE
  5
255
330
1F
100
AcDbEntity
  8
0
  62
7
100
AcDbLine
 10
805.350000
 20
511.349979
 30
0.000000
 11
805.350000
 21
514.350001
 31
0.000000
  0
LINE
  5
256
330
1F
100
AcDbEntity
  8
0
  62
7
100
AcDbLine
 10
805.350000
 20
514.350001
 30
0.000000
 11
795.849977
 21
514.350001
 31
0.000000
  0
LINE
  5
257
330
1F
100
AcDbEntity
  8
0
  62
7
100
AcDbLine
 10
795.849977
 20
514.350001
 30
0.000000
 11
795.849977
 21
511.349979
 31
0.000000
  0
LINE
  5
258
330
1F
100
AcDbEntity
  8
0
  62
7
100
AcDbLine
 10
795.849977
 20
511.349979
 30
0.000000
 11
789.349976
 21
511.349979
 31
0.000000
  0
LINE
  5
259
330
1F
100
AcDbEntity
  8
0
  62
7
100
AcDbLine
 10
789.349976
 20
511.349979
 30
0.000000
 11
789.349976
 21
520.599988
 31
0.000000
  0
LINE
  5
260
330
1F
100
AcDbEntity
  8
0
  62
7
100
AcDbLine
 10
789.349976
 20
520.599988
 30
0.000000
 11
786.349992
 21
520.599988
 31
0.000000
  0
LINE
  5
261
330
1F
100
AcDbEntity
  8
0
  62
7
100
AcDbLine
 10
786.349992
 20
520.599988
 30
0.000000
 11
786.349992
 21
529.849998
 31
0.000000
  0
LINE
  5
262
330
1F
100
AcDbEntity
  8
0
  62
7
100
AcDbLine
 10
786.349992
 20
529.849998
 30
0.000000
 11
789.349976
 21
529.849998
 31
0.000000
  0
LINE
  5
263
330
1F
100
AcDbEntity
  8
0
  62
7
100
AcDbLine
 10
789.349976
 20
529.849998
 30
0.000000
 11
789.349976
 21
535.849972
 31
0.000000
  0
LINE
  5
264
330
1F
100
AcDbEntity
  8
0
  62
7
100
AcDbLine
 10
789.349976
 20
535.849972
 30
0.000000
 11
786.349992
 21
535.849972
 31
0.000000
  0
LINE
  5
265
330
1F
100
AcDbEntity
  8
0
  62
7
100
AcDbLine
 10
786.349992
 20
535.849972
 30
0.000000
 11
786.349992
 21
541.849981
 31
0.000000
  0
LINE
  5
266
330
1F
100
AcDbEntity
  8
0
  62
7
100
AcDbLine
 10
786.349992
 20
541.849981
 30
0.000000
 11
789.349976
 21
541.849981
 31
0.000000
  0
LINE
  5
267
330
1F
100
AcDbEntity
  8
0
  62
7
100
AcDbLine
 10
789.349976
 20
541.849981
 30
0.000000
 11
789.349976
 21
547.849990
 31
0.000000
  0
LINE
  5
268
330
1F
100
AcDbEntity
  8
0
  62
7
100
AcDbLine
 10
789.349976
 20
547.849990
 30
0.000000
 11
786.349992
 21
547.849990
 31
0.000000
  0
LINE
  5
269
330
1F
100
AcDbEntity
  8
0
  62
7
100
AcDbLine
 10
786.349992
 20
547.849990
 30
0.000000
 11
786.349992
 21
557.099999
 31
0.000000
  0
LINE
  5
270
330
1F
100
AcDbEntity
  8
0
  62
7
100
AcDbLine
 10
786.349992
 20
557.099999
 30
0.000000
 11
789.349976
 21
557.099999
 31
0.000000
  0
LINE
  5
271
330
1F
100
AcDbEntity
  8
0
  62
7
100
AcDbLine
 10
789.349976
 20
557.099999
 30
0.000000
 11
789.349976
 21
566.349973
 31
0.000000
  0
LINE
  5
272
330
1F
100
AcDbEntity
  8
0
  62
7
100
AcDbLine
 10
789.349976
 20
511.349979
 30
0.000000
 11
795.849977
 21
511.349979
 31
0.000000
  0
LINE
  5
273
330
1F
100
AcDbEntity
  8
0
  62
7
100
AcDbLine
 10
795.849977
 20
511.349979
 30
0.000000
 11
795.849977
 21
508.349992
 31
0.000000
  0
LINE
  5
274
330
1F
100
AcDbEntity
  8
0
  62
7
100
AcDbLine
 10
795.849977
 20
508.349992
 30
0.000000
 11
805.350000
 21
508.349992
 31
0.000000
  0
LINE
  5
275
330
1F
100
AcDbEntity
  8
0
  62
7
100
AcDbLine
 10
805.350000
 20
508.349992
 30
0.000000
 11
805.350000
 21
511.349979
 31
0.000000
  0
LINE
  5
276
330
1F
100
AcDbEntity
  8
0
  62
7
100
AcDbLine
 10
805.350000
 20
511.349979
 30
0.000000
 11
811.350009
 21
511.349979
 31
0.000000
  0
LINE
  5
277
330
1F
100
AcDbEntity
  8
0
  62
7
100
AcDbLine
 10
811.350009
 20
511.349979
 30
0.000000
 11
811.350009
 21
508.349992
 31
0.000000
  0
LINE
  5
278
330
1F
100
AcDbEntity
  8
0
  62
7
100
AcDbLine
 10
811.350009
 20
508.349992
 30
0.000000
 11
817.349986
 21
508.349992
 31
0.000000
  0
LINE
  5
279
330
1F
100
AcDbEntity
  8
0
  62
7
100
AcDbLine
 10
817.349986
 20
508.349992
 30
0.000000
 11
817.349986
 21
511.349979
 31
0.000000
  0
LINE
  5
280
330
1F
100
AcDbEntity
  8
0
  62
7
100
AcDbLine
 10
817.349986
 20
511.349979
 30
0.000000
 11
823.349991
 21
511.349979
 31
0.000000
  0
LINE
  5
281
330
1F
100
AcDbEntity
  8
0
  62
7
100
AcDbLine
 10
823.349991
 20
511.349979
 30
0.000000
 11
823.349991
 21
508.349992
 31
0.000000
  0
LINE
  5
282
330
1F
100
AcDbEntity
  8
0
  62
7
100
AcDbLine
 10
823.349991
 20
508.349992
 30
0.000000
 11
829.350000
 21
508.349992
 31
0.000000
  0
LINE
  5
283
330
1F
100
AcDbEntity
  8
0
  62
7
100
AcDbLine
 10
829.350000
 20
508.349992
 30
0.000000
 11
829.350000
 21
511.349979
 31
0.000000
  0
LINE
  5
284
330
1F
100
AcDbEntity
  8
0
  62
7
100
AcDbLine
 10
829.350000
 20
511.349979
 30
0.000000
 11
835.349974
 21
511.349979
 31
0.000000
  0
LINE
  5
285
330
1F
100
AcDbEntity
  8
0
  62
7
100
AcDbLine
 10
835.349974
 20
511.349979
 30
0.000000
 11
835.349974
 21
508.349992
 31
0.000000
  0
LINE
  5
286
330
1F
100
AcDbEntity
  8
0
  62
7
100
AcDbLine
 10
835.349974
 20
508.349992
 30
0.000000
 11
841.349983
 21
508.349992
 31
0.000000
  0
LINE
  5
287
330
1F
100
AcDbEntity
  8
0
  62
7
100
AcDbLine
 10
841.349983
 20
508.349992
 30
0.000000
 11
841.349983
 21
511.349979
 31
0.000000
  0
LINE
  5
288
330
1F
100
AcDbEntity
  8
0
  62
7
100
AcDbLine
 10
841.349983
 20
511.349979
 30
0.000000
 11
847.349992
 21
511.349979
 31
0.000000
  0
LINE
  5
289
330
1F
100
AcDbEntity
  8
0
  62
7
100
AcDbLine
 10
847.349992
 20
511.349979
 30
0.000000
 11
847.349992
 21
508.349992
 31
0.000000
  0
LINE
  5
290
330
1F
100
AcDbEntity
  8
0
  62
7
100
AcDbLine
 10
847.349992
 20
508.349992
 30
0.000000
 11
856.849980
 21
508.349992
 31
0.000000
  0
LINE
  5
291
330
1F
100
AcDbEntity
  8
0
  62
7
100
AcDbLine
 10
856.849980
 20
508.349992
 30
0.000000
 11
856.849980
 21
511.349979
 31
0.000000
  0
LINE
  5
292
330
1F
100
AcDbEntity
  8
0
  62
7
100
AcDbLine
 10
856.849980
 20
511.349979
 30
0.000000
 11
863.349981
 21
511.349979
 31
0.000000
  0
LINE
  5
293
330
1F
100
AcDbEntity
  8
0
  62
7
100
AcDbLine
 10
863.349981
 20
511.349979
 30
0.000000
 11
863.349981
 21
502.100005
 31
0.000000
  0
LINE
  5
294
330
1F
100
AcDbEntity
  8
0
  62
7
100
AcDbLine
 10
863.349981
 20
502.100005
 30
0.000000
 11
866.350003
 21
502.100005
 31
0.000000
  0
LINE
  5
295
330
1F
100
AcDbEntity
  8
0
  62
7
100
AcDbLine
 10
866.350003
 20
502.100005
 30
0.000000
 11
866.350003
 21
492.849995
 31
0.000000
  0
LINE
  5
296
330
1F
100
AcDbEntity
  8
0
  62
7
100
AcDbLine
 10
866.350003
 20
492.849995
 30
0.000000
 11
863.349981
 21
492.849995
 31
0.000000
  0
LINE
  5
297
330
1F
100
AcDbEntity
  8
0
  62
7
100
AcDbLine
 10
863.349981
 20
492.849995
 30
0.000000
 11
863.349981
 21
486.849986
 31
0.000000
  0
LINE
  5
298
330
1F
100
AcDbEntity
  8
0
  62
7
100
AcDbLine
 10
863.349981
 20
486.849986
 30
0.000000
 11
866.350003
 21
486.849986
 31
0.000000
  0
LINE
  5
299
330
1F
100
AcDbEntity
  8
0
  62
7
100
AcDbLine
 10
866.350003
 20
486.849986
 30
0.000000
 11
866.350003
 21
480.849977
 31
0.000000
  0
LINE
  5
300
330
1F
100
AcDbEntity
  8
0
  62
7
100
AcDbLine
 10
866.350003
 20
480.849977
 30
0.000000
 11
863.349981
 21
480.849977
 31
0.000000
  0
LINE
  5
301
330
1F
100
AcDbEntity
  8
0
  62
7
100
AcDbLine
 10
863.349981
 20
480.849977
 30
0.000000
 11
863.349981
 21
474.850003
 31
0.000000
  0
LINE
  5
302
330
1F
100
AcDbEntity
  8
0
  62
7
100
AcDbLine
 10
863.349981
 20
474.850003
 30
0.000000
 11
866.350003
 21
474.850003
 31
0.000000
  0
LINE
  5
303
330
1F
100
AcDbEntity
  8
0
  62
7
100
AcDbLine
 10
866.350003
 20
474.850003
 30
0.000000
 11
866.350003
 21
465.599994
 31
0.000000
  0
LINE
  5
304
330
1F
100
AcDbEntity
  8
0
  62
7
100
AcDbLine
 10
866.350003
 20
465.599994
 30
0.000000
 11
863.349981
 21
465.599994
 31
0.000000
  0
LINE
  5
305
330
1F
100
AcDbEntity
  8
0
  62
7
100
AcDbLine
 10
863.349981
 20
465.599994
 30
0.000000
 11
863.349981
 21
456.349985
 31
0.000000
  0
LINE
  5
306
330
1F
100
AcDbEntity
  8
0
  62
7
100
AcDbLine
 10
863.349981
 20
456.349985
 30
0.000000
 11
856.849980
 21
456.349985
 31
0.000000
  0
LINE
  5
307
330
1F
100
AcDbEntity
  8
0
  62
7
100
AcDbLine
 10
856.849980
 20
456.349985
 30
0.000000
 11
856.849980
 21
459.350007
 31
0.000000
  0
LINE
  5
308
330
1F
100
AcDbEntity
  8
0
  62
7
100
AcDbLine
 10
856.849980
 20
459.350007
 30
0.000000
 11
847.349992
 21
459.350007
 31
0.000000
  0
LINE
  5
309
330
1F
100
AcDbEntity
  8
0
  62
7
100
AcDbLine
 10
847.349992
 20
459.350007
 30
0.000000
 11
847.349992
 21
456.349985
 31
0.000000
  0
LINE
  5
310
330
1F
100
AcDbEntity
  8
0
  62
7
100
AcDbLine
 10
847.349992
 20
456.349985
 30
0.000000
 11
841.349983
 21
456.349985
 31
0.000000
  0
LINE
  5
311
330
1F
100
AcDbEntity
  8
0
  62
7
100
AcDbLine
 10
841.349983
 20
456.349985
 30
0.000000
 11
841.349983
 21
459.350007
 31
0.000000
  0
LINE
  5
312
330
1F
100
AcDbEntity
  8
0
  62
7
100
AcDbLine
 10
841.349983
 20
459.350007
 30
0.000000
 11
835.349974
 21
459.350007
 31
0.000000
  0
LINE
  5
313
330
1F
100
AcDbEntity
  8
0
  62
7
100
AcDbLine
 10
835.349974
 20
459.350007
 30
0.000000
 11
835.349974
 21
456.349985
 31
0.000000
  0
LINE
  5
314
330
1F
100
AcDbEntity
  8
0
  62
7
100
AcDbLine
 10
835.349974
 20
456.349985
 30
0.000000
 11
829.350000
 21
456.349985
 31
0.000000
  0
LINE
  5
315
330
1F
100
AcDbEntity
  8
0
  62
7
100
AcDbLine
 10
829.350000
 20
456.349985
 30
0.000000
 11
829.350000
 21
459.350007
 31
0.000000
  0
LINE
  5
316
330
1F
100
AcDbEntity
  8
0
  62
7
100
AcDbLine
 10
829.350000
 20
459.350007
 30
0.000000
 11
823.349991
 21
459.350007
 31
0.000000
  0
LINE
  5
317
330
1F
100
AcDbEntity
  8
0
  62
7
100
AcDbLine
 10
823.349991
 20
459.350007
 30
0.000000
 11
823.349991
 21
456.349985
 31
0.000000
  0
LINE
  5
318
330
1F
100
AcDbEntity
  8
0
  62
7
100
AcDbLine
 10
823.349991
 20
456.349985
 30
0.000000
 11
817.349986
 21
456.349985
 31
0.000000
  0
LINE
  5
319
330
1F
100
AcDbEntity
  8
0
  62
7
100
AcDbLine
 10
817.349986
 20
456.349985
 30
0.000000
 11
817.349986
 21
459.350007
 31
0.000000
  0
LINE
  5
320
330
1F
100
AcDbEntity
  8
0
  62
7
100
AcDbLine
 10
817.349986
 20
459.350007
 30
0.000000
 11
811.350009
 21
459.350007
 31
0.000000
  0
LINE
  5
321
330
1F
100
AcDbEntity
  8
0
  62
7
100
AcDbLine
 10
811.350009
 20
459.350007
 30
0.000000
 11
811.350009
 21
456.349985
 31
0.000000
  0
LINE
  5
322
330
1F
100
AcDbEntity
  8
0
  62
7
100
AcDbLine
 10
811.350009
 20
456.349985
 30
0.000000
 11
805.350000
 21
456.349985
 31
0.000000
  0
LINE
  5
323
330
1F
100
AcDbEntity
  8
0
  62
7
100
AcDbLine
 10
805.350000
 20
456.349985
 30
0.000000
 11
805.350000
 21
459.350007
 31
0.000000
  0
LINE
  5
324
330
1F
100
AcDbEntity
  8
0
  62
7
100
AcDbLine
 10
805.350000
 20
459.350007
 30
0.000000
 11
795.849977
 21
459.350007
 31
0.000000
  0
LINE
  5
325
330
1F
100
AcDbEntity
  8
0
  62
7
100
AcDbLine
 10
795.849977
 20
459.350007
 30
0.000000
 11
795.849977
 21
456.349985
 31
0.000000
  0
LINE
  5
326
330
1F
100
AcDbEntity
  8
0
  62
7
100
AcDbLine
 10
795.849977
 20
456.349985
 30
0.000000
 11
789.349976
 21
456.349985
 31
0.000000
  0
LINE
  5
327
330
1F
100
AcDbEntity
  8
0
  62
7
100
AcDbLine
 10
789.349976
 20
456.349985
 30
0.000000
 11
789.349976
 21
465.599994
 31
0.000000
  0
LINE
  5
328
330
1F
100
AcDbEntity
  8
0
  62
7
100
AcDbLine
 10
789.349976
 20
465.599994
 30
0.000000
 11
786.349992
 21
465.599994
 31
0.000000
  0
LINE
  5
329
330
1F
100
AcDbEntity
  8
0
  62
7
100
AcDbLine
 10
786.349992
 20
465.599994
 30
0.000000
 11
786.349992
 21
474.850003
 31
0.000000
  0
LINE
  5
330
330
1F
100
AcDbEntity
  8
0
  62
7
100
AcDbLine
 10
786.349992
 20
474.850003
 30
0.000000
 11
789.349976
 21
474.850003
 31
0.000000
  0
LINE
  5
331
330
1F
100
AcDbEntity
  8
0
  62
7
100
AcDbLine
 10
789.349976
 20
474.850003
 30
0.000000
 11
789.349976
 21
480.849977
 31
0.000000
  0
LINE
  5
332
330
1F
100
AcDbEntity
  8
0
  62
7
100
AcDbLine
 10
789.349976
 20
480.849977
 30
0.000000
 11
786.349992
 21
480.849977
 31
0.000000
  0
LINE
  5
333
330
1F
100
AcDbEntity
  8
0
  62
7
100
AcDbLine
 10
786.349992
 20
480.849977
 30
0.000000
 11
786.349992
 21
486.849986
 31
0.000000
  0
LINE
  5
334
330
1F
100
AcDbEntity
  8
0
  62
7
100
AcDbLine
 10
786.349992
 20
486.849986
 30
0.000000
 11
789.349976
 21
486.849986
 31
0.000000
  0
LINE
  5
335
330
1F
100
AcDbEntity
  8
0
  62
7
100
AcDbLine
 10
789.349976
 20
486.849986
 30
0.000000
 11
789.349976
 21
492.849995
 31
0.000000
  0
LINE
  5
336
330
1F
100
AcDbEntity
  8
0
  62
7
100
AcDbLine
 10
789.349976
 20
492.849995
 30
0.000000
 11
786.349992
 21
492.849995
 31
0.000000
  0
LINE
  5
337
330
1F
100
AcDbEntity
  8
0
  62
7
100
AcDbLine
 10
786.349992
 20
492.849995
 30
0.000000
 11
786.349992
 21
502.100005
 31
0.000000
  0
LINE
  5
338
330
1F
100
AcDbEntity
  8
0
  62
7
100
AcDbLine
 10
786.349992
 20
502.100005
 30
0.000000
 11
789.349976
 21
502.100005
 31
0.000000
  0
LINE
  5
339
330
1F
100
AcDbEntity
  8
0
  62
7
100
AcDbLine
 10
789.349976
 20
502.100005
 30
0.000000
 11
789.349976
 21
511.349979
 31
0.000000
  0
LINE
  5
340
330
1F
100
AcDbEntity
  8
0
  62
7
100
AcDbLine
 10
679.349987
 20
508.349992
 30
0.000000
 11
685.600010
 21
508.349992
 31
0.000000
  0
LINE
  5
341
330
1F
100
AcDbEntity
  8
0
  62
7
100
AcDbLine
 10
685.600010
 20
508.349992
 30
0.000000
 11
685.600010
 21
511.349979
 31
0.000000
  0
LINE
  5
342
330
1F
100
AcDbEntity
  8
0
  62
7
100
AcDbLine
 10
685.600010
 20
511.349979
 30
0.000000
 11
694.849984
 21
511.349979
 31
0.000000
  0
LINE
  5
343
330
1F
100
AcDbEntity
  8
0
  62
7
100
AcDbLine
 10
694.849984
 20
511.349979
 30
0.000000
 11
694.849984
 21
508.349992
 31
0.000000
  0
LINE
  5
344
330
1F
100
AcDbEntity
  8
0
  62
7
100
AcDbLine
 10
694.849984
 20
508.349992
 30
0.000000
 11
700.849993
 21
508.349992
 31
0.000000
  0
LINE
  5
345
330
1F
100
AcDbEntity
  8
0
  62
7
100
AcDbLine
 10
700.849993
 20
508.349992
 30
0.000000
 11
700.849993
 21
511.349979
 31
0.000000
  0
LINE
  5
346
330
1F
100
AcDbEntity
  8
0
  62
7
100
AcDbLine
 10
700.849993
 20
511.349979
 30
0.000000
 11
706.850002
 21
511.349979
 31
0.000000
  0
LINE
  5
347
330
1F
100
AcDbEntity
  8
0
  62
7
100
AcDbLine
 10
706.850002
 20
511.349979
 30
0.000000
 11
706.850002
 21
508.349992
 31
0.000000
  0
LINE
  5
348
330
1F
100
AcDbEntity
  8
0
  62
7
100
AcDbLine
 10
706.850002
 20
508.349992
 30
0.000000
 11
712.850011
 21
508.349992
 31
0.000000
  0
LINE
  5
349
330
1F
100
AcDbEntity
  8
0
  62
7
100
AcDbLine
 10
712.850011
 20
508.349992
 30
0.000000
 11
712.850011
 21
511.349979
 31
0.000000
  0
LINE
  5
350
330
1F
100
AcDbEntity
  8
0
  62
7
100
AcDbLine
 10
712.850011
 20
511.349979
 30
0.000000
 11
722.099986
 21
511.349979
 31
0.000000
  0
LINE
  5
351
330
1F
100
AcDbEntity
  8
0
  62
7
100
AcDbLine
 10
722.099986
 20
511.349979
 30
0.000000
 11
722.099986
 21
508.349992
 31
0.000000
  0
LINE
  5
352
330
1F
100
AcDbEntity
  8
0
  62
7
100
AcDbLine
 10
722.099986
 20
508.349992
 30
0.000000
 11
728.350007
 21
508.349992
 31
0.000000
  0
LINE
  5
353
330
1F
100
AcDbEntity
  8
0
  62
7
100
AcDbLine
 10
728.350007
 20
508.349992
 30
0.000000
 11
728.350007
 21
501.849991
 31
0.000000
  0
LINE
  5
354
330
1F
100
AcDbEntity
  8
0
  62
7
100
AcDbLine
 10
728.350007
 20
501.849991
 30
0.000000
 11
731.349994
 21
501.849991
 31
0.000000
  0
LINE
  5
355
330
1F
100
AcDbEntity
  8
0
  62
7
100
AcDbLine
 10
731.349994
 20
501.849991
 30
0.000000
 11
731.349994
 21
492.350003
 31
0.000000
  0
LINE
  5
356
330
1F
100
AcDbEntity
  8
0
  62
7
100
AcDbLine
 10
731.349994
 20
492.350003
 30
0.000000
 11
728.350007
 21
492.350003
 31
0.000000
  0
LINE
  5
357
330
1F
100
AcDbEntity
  8
0
  62
7
100
AcDbLine
 10
728.350007
 20
492.350003
 30
0.000000
 11
728.350007
 21
486.349994
 31
0.000000
  0
LINE
  5
358
330
1F
100
AcDbEntity
  8
0
  62
7
100
AcDbLine
 10
728.350007
 20
486.349994
 30
0.000000
 11
731.349994
 21
486.349994
 31
0.000000
  0
LINE
  5
359
330
1F
100
AcDbEntity
  8
0
  62
7
100
AcDbLine
 10
731.349994
 20
486.349994
 30
0.000000
 11
731.349994
 21
480.349985
 31
0.000000
  0
LINE
  5
360
330
1F
100
AcDbEntity
  8
0
  62
7
100
AcDbLine
 10
731.349994
 20
480.349985
 30
0.000000
 11
728.350007
 21
480.349985
 31
0.000000
  0
LINE
  5
361
330
1F
100
AcDbEntity
  8
0
  62
7
100
AcDbLine
 10
728.350007
 20
480.349985
 30
0.000000
 11
728.350007
 21
474.350012
 31
0.000000
  0
LINE
  5
362
330
1F
100
AcDbEntity
  8
0
  62
7
100
AcDbLine
 10
728.350007
 20
474.350012
 30
0.000000
 11
731.349994
 21
474.350012
 31
0.000000
  0
LINE
  5
363
330
1F
100
AcDbEntity
  8
0
  62
7
100
AcDbLine
 10
731.349994
 20
474.350012
 30
0.000000
 11
731.349994
 21
468.350003
 31
0.000000
  0
LINE
  5
364
330
1F
100
AcDbEntity
  8
0
  62
7
100
AcDbLine
 10
731.349994
 20
468.350003
 30
0.000000
 11
728.350007
 21
468.350003
 31
0.000000
  0
LINE
  5
365
330
1F
100
AcDbEntity
  8
0
  62
7
100
AcDbLine
 10
728.350007
 20
468.350003
 30
0.000000
 11
728.350007
 21
462.349994
 31
0.000000
  0
LINE
  5
366
330
1F
100
AcDbEntity
  8
0
  62
7
100
AcDbLine
 10
728.350007
 20
462.349994
 30
0.000000
 11
731.349994
 21
462.349994
 31
0.000000
  0
LINE
  5
367
330
1F
100
AcDbEntity
  8
0
  62
7
100
AcDbLine
 10
731.349994
 20
462.349994
 30
0.000000
 11
731.349994
 21
456.349985
 31
0.000000
  0
LINE
  5
368
330
1F
100
AcDbEntity
  8
0
  62
7
100
AcDbLine
 10
731.349994
 20
456.349985
 30
0.000000
 11
728.350007
 21
456.349985
 31
0.000000
  0
LINE
  5
369
330
1F
100
AcDbEntity
  8
0
  62
7
100
AcDbLine
 10
728.350007
 20
456.349985
 30
0.000000
 11
728.350007
 21
450.350011
 31
0.000000
  0
LINE
  5
370
330
1F
100
AcDbEntity
  8
0
  62
7
100
AcDbLine
 10
728.350007
 20
450.350011
 30
0.000000
 11
731.349994
 21
450.350011
 31
0.000000
  0
LINE
  5
371
330
1F
100
AcDbEntity
  8
0
  62
7
100
AcDbLine
 10
731.349994
 20
450.350011
 30
0.000000
 11
731.349994
 21
440.849988
 31
0.000000
  0
LINE
  5
372
330
1F
100
AcDbEntity
  8
0
  62
7
100
AcDbLine
 10
731.349994
 20
440.849988
 30
0.000000
 11
728.350007
 21
440.849988
 31
0.000000
  0
LINE
  5
373
330
1F
100
AcDbEntity
  8
0
  62
7
100
AcDbLine
 10
728.350007
 20
440.849988
 30
0.000000
 11
728.350007
 21
434.349987
 31
0.000000
  0
LINE
  5
374
330
1F
100
AcDbEntity
  8
0
  62
7
100
AcDbLine
 10
728.350007
 20
434.349987
 30
0.000000
 11
722.099986
 21
434.349987
 31
0.000000
  0
LINE
  5
375
330
1F
100
AcDbEntity
  8
0
  62
7
100
AcDbLine
 10
722.099986
 20
434.349987
 30
0.000000
 11
722.099986
 21
431.350000
 31
0.000000
  0
LINE
  5
376
330
1F
100
AcDbEntity
  8
0
  62
7
100
AcDbLine
 10
722.099986
 20
431.350000
 30
0.000000
 11
712.850011
 21
431.350000
 31
0.000000
  0
LINE
  5
377
330
1F
100
AcDbEntity
  8
0
  62
7
100
AcDbLine
 10
712.850011
 20
431.350000
 30
0.000000
 11
712.850011
 21
434.349987
 31
0.000000
  0
LINE
  5
378
330
1F
100
AcDbEntity
  8
0
  62
7
100
AcDbLine
 10
712.850011
 20
434.349987
 30
0.000000
 11
706.850002
 21
434.349987
 31
0.000000
  0
LINE
  5
379
330
1F
100
AcDbEntity
  8
0
  62
7
100
AcDbLine
 10
706.850002
 20
434.349987
 30
0.000000
 11
706.850002
 21
431.350000
 31
0.000000
  0
LINE
  5
380
330
1F
100
AcDbEntity
  8
0
  62
7
100
AcDbLine
 10
706.850002
 20
431.350000
 30
0.000000
 11
700.849993
 21
431.350000
 31
0.000000
  0
LINE
  5
381
330
1F
100
AcDbEntity
  8
0
  62
7
100
AcDbLine
 10
700.849993
 20
431.350000
 30
0.000000
 11
700.849993
 21
434.349987
 31
0.000000
  0
LINE
  5
382
330
1F
100
AcDbEntity
  8
0
  62
7
100
AcDbLine
 10
700.849993
 20
434.349987
 30
0.000000
 11
694.849984
 21
434.349987
 31
0.000000
  0
LINE
  5
383
330
1F
100
AcDbEntity
  8
0
  62
7
100
AcDbLine
 10
694.849984
 20
434.349987
 30
0.000000
 11
694.849984
 21
431.350000
 31
0.000000
  0
LINE
  5
384
330
1F
100
AcDbEntity
  8
0
  62
7
100
AcDbLine
 10
694.849984
 20
431.350000
 30
0.000000
 11
685.600010
 21
431.350000
 31
0.000000
  0
LINE
  5
385
330
1F
100
AcDbEntity
  8
0
  62
7
100
AcDbLine
 10
685.600010
 20
431.350000
 30
0.000000
 11
685.600010
 21
434.349987
 31
0.000000
  0
LINE
  5
386
330
1F
100
AcDbEntity
  8
0
  62
7
100
AcDbLine
 10
685.600010
 20
434.349987
 30
0.000000
 11
679.349987
 21
434.349987
 31
0.000000
  0
LINE
  5
387
330
1F
100
AcDbEntity
  8
0
  62
7
100
AcDbLine
 10
679.349987
 20
434.349987
 30
0.000000
 11
679.349987
 21
440.849988
 31
0.000000
  0
LINE
  5
388
330
1F
100
AcDbEntity
  8
0
  62
7
100
AcDbLine
 10
679.349987
 20
440.849988
 30
0.000000
 11
676.350000
 21
440.849988
 31
0.000000
  0
LINE
  5
389
330
1F
100
AcDbEntity
  8
0
  62
7
100
AcDbLine
 10
676.350000
 20
440.849988
 30
0.000000
 11
676.350000
 21
450.350011
 31
0.000000
  0
LINE
  5
390
330
1F
100
AcDbEntity
  8
0
  62
7
100
AcDbLine
 10
676.350000
 20
450.350011
 30
0.000000
 11
679.349987
 21
450.350011
 31
0.000000
  0
LINE
  5
391
330
1F
100
AcDbEntity
  8
0
  62
7
100
AcDbLine
 10
679.349987
 20
450.350011
 30
0.000000
 11
679.349987
 21
456.349985
 31
0.000000
  0
LINE
  5
392
330
1F
100
AcDbEntity
  8
0
  62
7
100
AcDbLine
 10
679.349987
 20
456.349985
 30
0.000000
 11
676.350000
 21
456.349985
 31
0.000000
  0
LINE
  5
393
330
1F
100
AcDbEntity
  8
0
  62
7
100
AcDbLine
 10
676.350000
 20
456.349985
 30
0.000000
 11
676.350000
 21
462.349994
 31
0.000000
  0
LINE
  5
394
330
1F
100
AcDbEntity
  8
0
  62
7
100
AcDbLine
 10
676.350000
 20
462.349994
 30
0.000000
 11
679.349987
 21
462.349994
 31
0.000000
  0
LINE
  5
395
330
1F
100
AcDbEntity
  8
0
  62
7
100
AcDbLine
 10
679.349987
 20
462.349994
 30
0.000000
 11
679.349987
 21
468.350003
 31
0.000000
  0
LINE
  5
396
330
1F
100
AcDbEntity
  8
0
  62
7
100
AcDbLine
 10
679.349987
 20
468.350003
 30
0.000000
 11
676.350000
 21
468.350003
 31
0.000000
  0
LINE
  5
397
330
1F
100
AcDbEntity
  8
0
  62
7
100
AcDbLine
 10
676.350000
 20
468.350003
 30
0.000000
 11
676.350000
 21
474.350012
 31
0.000000
  0
LINE
  5
398
330
1F
100
AcDbEntity
  8
0
  62
7
100
AcDbLine
 10
676.350000
 20
474.350012
 30
0.000000
 11
679.349987
 21
474.350012
 31
0.000000
  0
LINE
  5
399
330
1F
100
AcDbEntity
  8
0
  62
7
100
AcDbLine
 10
679.349987
 20
474.350012
 30
0.000000
 11
679.349987
 21
480.349985
 31
0.000000
  0
LINE
  5
400
330
1F
100
AcDbEntity
  8
0
  62
7
100
AcDbLine
 10
679.349987
 20
480.349985
 30
0.000000
 11
676.350000
 21
480.349985
 31
0.000000
  0
LINE
  5
401
330
1F
100
AcDbEntity
  8
0
  62
7
100
AcDbLine
 10
676.350000
 20
480.349985
 30
0.000000
 11
676.350000
 21
486.349994
 31
0.000000
  0
LINE
  5
402
330
1F
100
AcDbEntity
  8
0
  62
7
100
AcDbLine
 10
676.350000
 20
486.349994
 30
0.000000
 11
679.349987
 21
486.349994
 31
0.000000
  0
LINE
  5
403
330
1F
100
AcDbEntity
  8
0
  62
7
100
AcDbLine
 10
679.349987
 20
486.349994
 30
0.000000
 11
679.349987
 21
492.350003
 31
0.000000
  0
LINE
  5
404
330
1F
100
AcDbEntity
  8
0
  62
7
100
AcDbLine
 10
679.349987
 20
492.350003
 30
0.000000
 11
676.350000
 21
492.350003
 31
0.000000
  0
LINE
  5
405
330
1F
100
AcDbEntity
  8
0
  62
7
100
AcDbLine
 10
676.350000
 20
492.350003
 30
0.000000
 11
676.350000
 21
501.849991
 31
0.000000
  0
LINE
  5
406
330
1F
100
AcDbEntity
  8
0
  62
7
100
AcDbLine
 10
676.350000
 20
501.849991
 30
0.000000
 11
679.349987
 21
501.849991
 31
0.000000
  0
LINE
  5
407
330
1F
100
AcDbEntity
  8
0
  62
7
100
AcDbLine
 10
679.349987
 20
501.849991
 30
0.000000
 11
679.349987
 21
508.349992
 31
0.000000
  0
LINE
  5
408
330
1F
100
AcDbEntity
  8
0
  62
7
100
AcDbLine
 10
734.349981
 20
508.349992
 30
0.000000
 11
740.600006
 21
508.349992
 31
0.000000
  0
LINE
  5
409
330
1F
100
AcDbEntity
  8
0
  62
7
100
AcDbLine
 10
740.600006
 20
508.349992
 30
0.000000
 11
740.600006
 21
511.349979
 31
0.000000
  0
LINE
  5
410
330
1F
100
AcDbEntity
  8
0
  62
7
100
AcDbLine
 10
740.600006
 20
511.349979
 30
0.000000
 11
749.849978
 21
511.349979
 31
0.000000
  0
LINE
  5
411
330
1F
100
AcDbEntity
  8
0
  62
7
100
AcDbLine
 10
749.849978
 20
511.349979
 30
0.000000
 11
749.849978
 21
508.349992
 31
0.000000
  0
LINE
  5
412
330
1F
100
AcDbEntity
  8
0
  62
7
100
AcDbLine
 10
749.849978
 20
508.349992
 30
0.000000
 11
755.849987
 21
508.349992
 31
0.000000
  0
LINE
  5
413
330
1F
100
AcDbEntity
  8
0
  62
7
100
AcDbLine
 10
755.849987
 20
508.349992
 30
0.000000
 11
755.849987
 21
511.349979
 31
0.000000
  0
LINE
  5
414
330
1F
100
AcDbEntity
  8
0
  62
7
100
AcDbLine
 10
755.849987
 20
511.349979
 30
0.000000
 11
761.849996
 21
511.349979
 31
0.000000
  0
LINE
  5
415
330
1F
100
AcDbEntity
  8
0
  62
7
100
AcDbLine
 10
761.849996
 20
511.349979
 30
0.000000
 11
761.849996
 21
508.349992
 31
0.000000
  0
LINE
  5
416
330
1F
100
AcDbEntity
  8
0
  62
7
100
AcDbLine
 10
761.849996
 20
508.349992
 30
0.000000
 11
767.850005
 21
508.349992
 31
0.000000
  0
LINE
  5
417
330
1F
100
AcDbEntity
  8
0
  62
7
100
AcDbLine
 10
767.850005
 20
508.349992
 30
0.000000
 11
767.850005
 21
511.349979
 31
0.000000
  0
LINE
  5
418
330
1F
100
AcDbEntity
  8
0
  62
7
100
AcDbLine
 10
767.850005
 20
511.349979
 30
0.000000
 11
777.099979
 21
511.349979
 31
0.000000
  0
LINE
  5
419
330
1F
100
AcDbEntity
  8
0
  62
7
100
AcDbLine
 10
777.099979
 20
511.349979
 30
0.000000
 11
777.099979
 21
508.349992
 31
0.000000
  0
LINE
  5
420
330
1F
100
AcDbEntity
  8
0
  62
7
100
AcDbLine
 10
777.099979
 20
508.349992
 30
0.000000
 11
783.350002
 21
508.349992
 31
0.000000
  0
LINE
  5
421
330
1F
100
AcDbEntity
  8
0
  62
7
100
AcDbLine
 10
783.350002
 20
508.349992
 30
0.000000
 11
783.350002
 21
501.849991
 31
0.000000
  0
LINE
  5
422
330
1F
100
AcDbEntity
  8
0
  62
7
100
AcDbLine
 10
783.350002
 20
501.849991
 30
0.000000
 11
786.349992
 21
501.849991
 31
0.000000
  0
LINE
  5
423
330
1F
100
AcDbEntity
  8
0
  62
7
100
AcDbLine
 10
786.349992
 20
501.849991
 30
0.000000
 11
786.349992
 21
492.350003
 31
0.000000
  0
LINE
  5
424
330
1F
100
AcDbEntity
  8
0
  62
7
100
AcDbLine
 10
786.349992
 20
492.350003
 30
0.000000
 11
783.350002
 21
492.350003
 31
0.000000
  0
LINE
  5
425
330
1F
100
AcDbEntity
  8
0
  62
7
100
AcDbLine
 10
783.350002
 20
492.350003
 30
0.000000
 11
783.350002
 21
486.349994
 31
0.000000
  0
LINE
  5
426
330
1F
100
AcDbEntity
  8
0
  62
7
100
AcDbLine
 10
783.350002
 20
486.349994
 30
0.000000
 11
786.349992
 21
486.349994
 31
0.000000
  0
LINE
  5
427
330
1F
100
AcDbEntity
  8
0
  62
7
100
AcDbLine
 10
786.349992
 20
486.349994
 30
0.000000
 11
786.349992
 21
480.349985
 31
0.000000
  0
LINE
  5
428
330
1F
100
AcDbEntity
  8
0
  62
7
100
AcDbLine
 10
786.349992
 20
480.349985
 30
0.000000
 11
783.350002
 21
480.349985
 31
0.000000
  0
LINE
  5
429
330
1F
100
AcDbEntity
  8
0
  62
7
100
AcDbLine
 10
783.350002
 20
480.349985
 30
0.000000
 11
783.350002
 21
474.350012
 31
0.000000
  0
LINE
  5
430
330
1F
100
AcDbEntity
  8
0
  62
7
100
AcDbLine
 10
783.350002
 20
474.350012
 30
0.000000
 11
786.349992
 21
474.350012
 31
0.000000
  0
LINE
  5
431
330
1F
100
AcDbEntity
  8
0
  62
7
100
AcDbLine
 10
786.349992
 20
474.350012
 30
0.000000
 11
786.349992
 21
468.350003
 31
0.000000
  0
LINE
  5
432
330
1F
100
AcDbEntity
  8
0
  62
7
100
AcDbLine
 10
786.349992
 20
468.350003
 30
0.000000
 11
783.350002
 21
468.350003
 31
0.000000
  0
LINE
  5
433
330
1F
100
AcDbEntity
  8
0
  62
7
100
AcDbLine
 10
783.350002
 20
468.350003
 30
0.000000
 11
783.350002
 21
462.349994
 31
0.000000
  0
LINE
  5
434
330
1F
100
AcDbEntity
  8
0
  62
7
100
AcDbLine
 10
783.350002
 20
462.349994
 30
0.000000
 11
786.349992
 21
462.349994
 31
0.000000
  0
LINE
  5
435
330
1F
100
AcDbEntity
  8
0
  62
7
100
AcDbLine
 10
786.349992
 20
462.349994
 30
0.000000
 11
786.349992
 21
456.349985
 31
0.000000
  0
LINE
  5
436
330
1F
100
AcDbEntity
  8
0
  62
7
100
AcDbLine
 10
786.349992
 20
456.349985
 30
0.000000
 11
783.350002
 21
456.349985
 31
0.000000
  0
LINE
  5
437
330
1F
100
AcDbEntity
  8
0
  62
7
100
AcDbLine
 10
783.350002
 20
456.349985
 30
0.000000
 11
783.350002
 21
450.350011
 31
0.000000
  0
LINE
  5
438
330
1F
100
AcDbEntity
  8
0
  62
7
100
AcDbLine
 10
783.350002
 20
450.350011
 30
0.000000
 11
786.349992
 21
450.350011
 31
0.000000
  0
LINE
  5
439
330
1F
100
AcDbEntity
  8
0
  62
7
100
AcDbLine
 10
786.349992
 20
450.350011
 30
0.000000
 11
786.349992
 21
440.849988
 31
0.000000
  0
LINE
  5
440
330
1F
100
AcDbEntity
  8
0
  62
7
100
AcDbLine
 10
786.349992
 20
440.849988
 30
0.000000
 11
783.350002
 21
440.849988
 31
0.000000
  0
LINE
  5
441
330
1F
100
AcDbEntity
  8
0
  62
7
100
AcDbLine
 10
783.350002
 20
440.849988
 30
0.000000
 11
783.350002
 21
434.349987
 31
0.000000
  0
LINE
  5
442
330
1F
100
AcDbEntity
  8
0
  62
7
100
AcDbLine
 10
783.350002
 20
434.349987
 30
0.000000
 11
777.099979
 21
434.349987
 31
0.000000
  0
LINE
  5
443
330
1F
100
AcDbEntity
  8
0
  62
7
100
AcDbLine
 10
777.099979
 20
434.349987
 30
0.000000
 11
777.099979
 21
431.350000
 31
0.000000
  0
LINE
  5
444
330
1F
100
AcDbEntity
  8
0
  62
7
100
AcDbLine
 10
777.099979
 20
431.350000
 30
0.000000
 11
767.850005
 21
431.350000
 31
0.000000
  0
LINE
  5
445
330
1F
100
AcDbEntity
  8
0
  62
7
100
AcDbLine
 10
767.850005
 20
431.350000
 30
0.000000
 11
767.850005
 21
434.349987
 31
0.000000
  0
LINE
  5
446
330
1F
100
AcDbEntity
  8
0
  62
7
100
AcDbLine
 10
767.850005
 20
434.349987
 30
0.000000
 11
761.849996
 21
434.349987
 31
0.000000
  0
LINE
  5
447
330
1F
100
AcDbEntity
  8
0
  62
7
100
AcDbLine
 10
761.849996
 20
434.349987
 30
0.000000
 11
761.849996
 21
431.350000
 31
0.000000
  0
LINE
  5
448
330
1F
100
AcDbEntity
  8
0
  62
7
100
AcDbLine
 10
761.849996
 20
431.350000
 30
0.000000
 11
755.849987
 21
431.350000
 31
0.000000
  0
LINE
  5
449
330
1F
100
AcDbEntity
  8
0
  62
7
100
AcDbLine
 10
755.849987
 20
431.350000
 30
0.000000
 11
755.849987
 21
434.349987
 31
0.000000
  0
LINE
  5
450
330
1F
100
AcDbEntity
  8
0
  62
7
100
AcDbLine
 10
755.849987
 20
434.349987
 30
0.000000
 11
749.849978
 21
434.349987
 31
0.000000
  0
LINE
  5
451
330
1F
100
AcDbEntity
  8
0
  62
7
100
AcDbLine
 10
749.849978
 20
434.349987
 30
0.000000
 11
749.849978
 21
431.350000
 31
0.000000
  0
LINE
  5
452
330
1F
100
AcDbEntity
  8
0
  62
7
100
AcDbLine
 10
749.849978
 20
431.350000
 30
0.000000
 11
740.600006
 21
431.350000
 31
0.000000
  0
LINE
  5
453
330
1F
100
AcDbEntity
  8
0
  62
7
100
AcDbLine
 10
740.600006
 20
431.350000
 30
0.000000
 11
740.600006
 21
434.349987
 31
0.000000
  0
LINE
  5
454
330
1F
100
AcDbEntity
  8
0
  62
7
100
AcDbLine
 10
740.600006
 20
434.349987
 30
0.000000
 11
734.349981
 21
434.349987
 31
0.000000
  0
LINE
  5
455
330
1F
100
AcDbEntity
  8
0
  62
7
100
AcDbLine
 10
734.349981
 20
434.349987
 30
0.000000
 11
734.349981
 21
440.849988
 31
0.000000
  0
LINE
  5
456
330
1F
100
AcDbEntity
  8
0
  62
7
100
AcDbLine
 10
734.349981
 20
440.849988
 30
0.000000
 11
731.349994
 21
440.849988
 31
0.000000
  0
LINE
  5
457
330
1F
100
AcDbEntity
  8
0
  62
7
100
AcDbLine
 10
731.349994
 20
440.849988
 30
0.000000
 11
731.349994
 21
450.350011
 31
0.000000
  0
LINE
  5
458
330
1F
100
AcDbEntity
  8
0
  62
7
100
AcDbLine
 10
731.349994
 20
450.350011
 30
0.000000
 11
734.349981
 21
450.350011
 31
0.000000
  0
LINE
  5
459
330
1F
100
AcDbEntity
  8
0
  62
7
100
AcDbLine
 10
734.349981
 20
450.350011
 30
0.000000
 11
734.349981
 21
456.349985
 31
0.000000
  0
LINE
  5
460
330
1F
100
AcDbEntity
  8
0
  62
7
100
AcDbLine
 10
734.349981
 20
456.349985
 30
0.000000
 11
731.349994
 21
456.349985
 31
0.000000
  0
LINE
  5
461
330
1F
100
AcDbEntity
  8
0
  62
7
100
AcDbLine
 10
731.349994
 20
456.349985
 30
0.000000
 11
731.349994
 21
462.349994
 31
0.000000
  0
LINE
  5
462
330
1F
100
AcDbEntity
  8
0
  62
7
100
AcDbLine
 10
731.349994
 20
462.349994
 30
0.000000
 11
734.349981
 21
462.349994
 31
0.000000
  0
LINE
  5
463
330
1F
100
AcDbEntity
  8
0
  62
7
100
AcDbLine
 10
734.349981
 20
462.349994
 30
0.000000
 11
734.349981
 21
468.350003
 31
0.000000
  0
LINE
  5
464
330
1F
100
AcDbEntity
  8
0
  62
7
100
AcDbLine
 10
734.349981
 20
468.350003
 30
0.000000
 11
731.349994
 21
468.350003
 31
0.000000
  0
LINE
  5
465
330
1F
100
AcDbEntity
  8
0
  62
7
100
AcDbLine
 10
731.349994
 20
468.350003
 30
0.000000
 11
731.349994
 21
474.350012
 31
0.000000
  0
LINE
  5
466
330
1F
100
AcDbEntity
  8
0
  62
7
100
AcDbLine
 10
731.349994
 20
474.350012
 30
0.000000
 11
734.349981
 21
474.350012
 31
0.000000
  0
LINE
  5
467
330
1F
100
AcDbEntity
  8
0
  62
7
100
AcDbLine
 10
734.349981
 20
474.350012
 30
0.000000
 11
734.349981
 21
480.349985
 31
0.000000
  0
LINE
  5
468
330
1F
100
AcDbEntity
  8
0
  62
7
100
AcDbLine
 10
734.349981
 20
480.349985
 30
0.000000
 11
731.349994
 21
480.349985
 31
0.000000
  0
LINE
  5
469
330
1F
100
AcDbEntity
  8
0
  62
7
100
AcDbLine
 10
731.349994
 20
480.349985
 30
0.000000
 11
731.349994
 21
486.349994
 31
0.000000
  0
LINE
  5
470
330
1F
100
AcDbEntity
  8
0
  62
7
100
AcDbLine
 10
731.349994
 20
486.349994
 30
0.000000
 11
734.349981
 21
486.349994
 31
0.000000
  0
LINE
  5
471
330
1F
100
AcDbEntity
  8
0
  62
7
100
AcDbLine
 10
734.349981
 20
486.349994
 30
0.000000
 11
734.349981
 21
492.350003
 31
0.000000
  0
LINE
  5
472
330
1F
100
AcDbEntity
  8
0
  62
7
100
AcDbLine
 10
734.349981
 20
492.350003
 30
0.000000
 11
731.349994
 21
492.350003
 31
0.000000
  0
LINE
  5
473
330
1F
100
AcDbEntity
  8
0
  62
7
100
AcDbLine
 10
731.349994
 20
492.350003
 30
0.000000
 11
731.349994
 21
501.849991
 31
0.000000
  0
LINE
  5
474
330
1F
100
AcDbEntity
  8
0
  62
7
100
AcDbLine
 10
731.349994
 20
501.849991
 30
0.000000
 11
734.349981
 21
501.849991
 31
0.000000
  0
LINE
  5
475
330
1F
100
AcDbEntity
  8
0
  62
7
100
AcDbLine
 10
734.349981
 20
501.849991
 30
0.000000
 11
734.349981
 21
508.349992
 31
0.000000
  0
SPLINE
  5
476
330
1F
100
AcDbEntity
  8
0
 62
     7
100
AcDbSpline
210
0.000000
220
0.000000
230
1.0
 70
     8
 71
     3
 72
     8
 73
     4
 42
0.0000000001
 43
0.0000000001
 44
0.0000000001
 12
0.000000
 22
0.000000
 32
0.000000
 13
0.000000
 23
0.000000
 33
0.000000
 40
0.000000
 40
0.000000
 40
0.000000
 40
0.000000
 40
1.000000
 40
1.000000
 40
1.000000
 40
1.000000
 10
682.547968
 20
547.938623
 30
0.000000
 10
682.546442
 20
549.335174
 30
0.000000
 10
682.920141
 20
550.729834
 30
0.000000
 10
683.619740
 20
551.938520
 30
0.000000
  0
SPLINE
  5
477
330
1F
100
AcDbEntity
  8
0
 62
     7
100
AcDbSpline
210
0.000000
220
0.000000
230
1.0
 70
     8
 71
     3
 72
     8
 73
     4
 42
0.0000000001
 43
0.0000000001
 44
0.0000000001
 12
0.000000
 22
0.000000
 32
0.000000
 13
0.000000
 23
0.000000
 33
0.000000
 40
0.000000
 40
0.000000
 40
0.000000
 40
0.000000
 40
1.000000
 40
1.000000
 40
1.000000
 40
1.000000
 10
683.619740
 20
551.938520
 30
0.000000
 10
684.316697
 20
553.148732
 30
0.000000
 10
685.337661
 20
554.169694
 30
0.000000
 10
686.547876
 20
554.866648
 30
0.000000
  0
SPLINE
  5
478
330
1F
100
AcDbEntity
  8
0
 62
     7
100
AcDbSpline
210
0.000000
220
0.000000
230
1.0
 70
     8
 71
     3
 72
     8
 73
     4
 42
0.0000000001
 43
0.0000000001
 44
0.0000000001
 12
0.000000
 22
0.000000
 32
0.000000
 13
0.000000
 23
0.000000
 33
0.000000
 40
0.000000
 40
0.000000
 40
0.000000
 40
0.000000
 40
1.000000
 40
1.000000
 40
1.000000
 40
1.000000
 10
686.547876
 20
554.866648
 30
0.000000
 10
687.756566
 20
555.566246
 30
0.000000
 10
689.151229
 20
555.939943
 30
0.000000
 10
690.547785
 20
555.938418
 30
0.000000
  0
SPLINE
  5
479
330
1F
100
AcDbEntity
  8
0
 62
     7
100
AcDbSpline
210
0.000000
220
0.000000
230
1.0
 70
     8
 71
     3
 72
     8
 73
     4
 42
0.0000000001
 43
0.0000000001
 44
0.0000000001
 12
0.000000
 22
0.000000
 32
0.000000
 13
0.000000
 23
0.000000
 33
0.000000
 40
0.000000
 40
0.000000
 40
0.000000
 40
0.000000
 40
1.000000
 40
1.000000
 40
1.000000
 40
1.000000
 10
690.547785
 20
555.938418
 30
0.000000
 10
691.944341
 20
555.939943
 30
0.000000
 10
693.339003
 20
555.566246
 30
0.000000
 10
694.547693
 20
554.866648
 30
0.000000
  0
SPLINE
  5
480
330
1F
100
AcDbEntity
  8
0
 62
     7
100
AcDbSpline
210
0.000000
220
0.000000
230
1.0
 70
     8
 71
     3
 72
     8
 73
     4
 42
0.0000000001
 43
0.0000000001
 44
0.0000000001
 12
0.000000
 22
0.000000
 32
0.000000
 13
0.000000
 23
0.000000
 33
0.000000
 40
0.000000
 40
0.000000
 40
0.000000
 40
0.000000
 40
1.000000
 40
1.000000
 40
1.000000
 40
1.000000
 10
694.547693
 20
554.866648
 30
0.000000
 10
695.757909
 20
554.169694
 30
0.000000
 10
696.778873
 20
553.148732
 30
0.000000
 10
697.475830
 20
551.938520
 30
0.000000
  0
SPLINE
  5
481
330
1F
100
AcDbEntity
  8
0
 62
     7
100
AcDbSpline
210
0.000000
220
0.000000
230
1.0
 70
     8
 71
     3
 72
     8
 73
     4
 42
0.0000000001
 43
0.0000000001
 44
0.0000000001
 12
0.000000
 22
0.000000
 32
0.000000
 13
0.000000
 23
0.000000
 33
0.000000
 40
0.000000
 40
0.000000
 40
0.000000
 40
0.000000
 40
1.000000
 40
1.000000
 40
1.000000
 40
1.000000
 10
697.475830
 20
551.938520
 30
0.000000
 10
698.175429
 20
550.729834
 30
0.000000
 10
698.549128
 20
549.335174
 30
0.000000
 10
698.547602
 20
547.938623
 30
0.000000
  0
SPLINE
  5
482
330
1F
100
AcDbEntity
  8
0
 62
     7
100
AcDbSpline
210
0.000000
220
0.000000
230
1.0
 70
     8
 71
     3
 72
     8
 73
     4
 42
0.0000000001
 43
0.0000000001
 44
0.0000000001
 12
0.000000
 22
0.000000
 32
0.000000
 13
0.000000
 23
0.000000
 33
0.000000
 40
0.000000
 40
0.000000
 40
0.000000
 40
0.000000
 40
1.000000
 40
1.000000
 40
1.000000
 40
1.000000
 10
698.547602
 20
547.938623
 30
0.000000
 10
698.549128
 20
546.542071
 30
0.000000
 10
698.175429
 20
545.147412
 30
0.000000
 10
697.475830
 20
543.938725
 30
0.000000
  0
SPLINE
  5
483
330
1F
100
AcDbEntity
  8
0
 62
     7
100
AcDbSpline
210
0.000000
220
0.000000
230
1.0
 70
     8
 71
     3
 72
     8
 73
     4
 42
0.0000000001
 43
0.0000000001
 44
0.0000000001
 12
0.000000
 22
0.000000
 32
0.000000
 13
0.000000
 23
0.000000
 33
0.000000
 40
0.000000
 40
0.000000
 40
0.000000
 40
0.000000
 40
1.000000
 40
1.000000
 40
1.000000
 40
1.000000
 10
697.475830
 20
543.938725
 30
0.000000
 10
696.778873
 20
542.728513
 30
0.000000
 10
695.757909
 20
541.707551
 30
0.000000
 10
694.547693
 20
541.010597
 30
0.000000
  0
SPLINE
  5
484
330
1F
100
AcDbEntity
  8
0
 62
     7
100
AcDbSpline
210
0.000000
220
0.000000
230
1.0
 70
     8
 71
     3
 72
     8
 73
     4
 42
0.0000000001
 43
0.0000000001
 44
0.0000000001
 12
0.000000
 22
0.000000
 32
0.000000
 13
0.000000
 23
0.000000
 33
0.000000
 40
0.000000
 40
0.000000
 40
0.000000
 40
0.000000
 40
1.000000
 40
1.000000
 40
1.000000
 40
1.000000
 10
694.547693
 20
541.010597
 30
0.000000
 10
693.339003
 20
540.311000
 30
0.000000
 10
691.944341
 20
539.937302
 30
0.000000
 10
690.547785
 20
539.938828
 30
0.000000
  0
SPLINE
  5
485
330
1F
100
AcDbEntity
  8
0
 62
     7
100
AcDbSpline
210
0.000000
220
0.000000
230
1.0
 70
     8
 71
     3
 72
     8
 73
     4
 42
0.0000000001
 43
0.0000000001
 44
0.0000000001
 12
0.000000
 22
0.000000
 32
0.000000
 13
0.000000
 23
0.000000
 33
0.000000
 40
0.000000
 40
0.000000
 40
0.000000
 40
0.000000
 40
1.000000
 40
1.000000
 40
1.000000
 40
1.000000
 10
690.547785
 20
539.938828
 30
0.000000
 10
689.151229
 20
539.937302
 30
0.000000
 10
687.756566
 20
540.311000
 30
0.000000
 10
686.547876
 20
541.010597
 30
0.000000
  0
SPLINE
  5
486
330
1F
100
AcDbEntity
  8
0
 62
     7
100
AcDbSpline
210
0.000000
220
0.000000
230
1.0
 70
     8
 71
     3
 72
     8
 73
     4
 42
0.0000000001
 43
0.0000000001
 44
0.0000000001
 12
0.000000
 22
0.000000
 32
0.000000
 13
0.000000
 23
0.000000
 33
0.000000
 40
0.000000
 40
0.000000
 40
0.000000
 40
0.000000
 40
1.000000
 40
1.000000
 40
1.000000
 40
1.000000
 10
686.547876
 20
541.010597
 30
0.000000
 10
685.337661
 20
541.707551
 30
0.000000
 10
684.316697
 20
542.728513
 30
0.000000
 10
683.619740
 20
543.938725
 30
0.000000
  0
SPLINE
  5
487
330
1F
100
AcDbEntity
  8
0
 62
     7
100
AcDbSpline
210
0.000000
220
0.000000
230
1.0
 70
     8
 71
     3
 72
     8
 73
     4
 42
0.0000000001
 43
0.0000000001
 44
0.0000000001
 12
0.000000
 22
0.000000
 32
0.000000
 13
0.000000
 23
0.000000
 33
0.000000
 40
0.000000
 40
0.000000
 40
0.000000
 40
0.000000
 40
1.000000
 40
1.000000
 40
1.000000
 40
1.000000
 10
683.619740
 20
543.938725
 30
0.000000
 10
682.920141
 20
545.147412
 30
0.000000
 10
682.546442
 20
546.542071
 30
0.000000
 10
682.547968
 20
547.938623
 30
0.000000
  0
LINE
  5
488
330
1F
100
AcDbEntity
  8
0
  62
7
100
AcDbLine
 10
740.276766
 20
514.367141
 30
0.000000
 11
740.276766
 21
528.367158
 31
0.000000
  0
LINE
  5
489
330
1F
100
AcDbEntity
  8
0
  62
7
100
AcDbLine
 10
740.276766
 20
528.367158
 30
0.000000
 11
750.276769
 21
528.367158
 31
0.000000
  0
LINE
  5
490
330
1F
100
AcDbEntity
  8
0
  62
7
100
AcDbLine
 10
750.276769
 20
528.367158
 30
0.000000
 11
750.276769
 21
514.367141
 31
0.000000
  0
LINE
  5
491
330
1F
100
AcDbEntity
  8
0
  62
7
100
AcDbLine
 10
750.276769
 20
514.367141
 30
0.000000
 11
740.276766
 21
514.367141
 31
0.000000
  0
SPLINE
  5
492
330
1F
100
AcDbEntity
  8
0
 62
     7
100
AcDbSpline
210
0.000000
220
0.000000
230
1.0
 70
     8
 71
     3
 72
     8
 73
     4
 42
0.0000000001
 43
0.0000000001
 44
0.0000000001
 12
0.000000
 22
0.000000
 32
0.000000
 13
0.000000
 23
0.000000
 33
0.000000
 40
0.000000
 40
0.000000
 40
0.000000
 40
0.000000
 40
1.000000
 40
1.000000
 40
1.000000
 40
1.000000
 10
745.452484
 20
542.045687
 30
0.000000
 10
745.450386
 20
543.965946
 30
0.000000
 10
745.964222
 20
545.883602
 30
0.000000
 10
746.926172
 20
547.545546
 30
0.000000
  0
SPLINE
  5
493
330
1F
100
AcDbEntity
  8
0
 62
     7
100
AcDbSpline
210
0.000000
220
0.000000
230
1.0
 70
     8
 71
     3
 72
     8
 73
     4
 42
0.0000000001
 43
0.0000000001
 44
0.0000000001
 12
0.000000
 22
0.000000
 32
0.000000
 13
0.000000
 23
0.000000
 33
0.000000
 40
0.000000
 40
0.000000
 40
0.000000
 40
0.000000
 40
1.000000
 40
1.000000
 40
1.000000
 40
1.000000
 10
746.926172
 20
547.545546
 30
0.000000
 10
747.884488
 20
549.209587
 30
0.000000
 10
749.288316
 20
550.613409
 30
0.000000
 10
750.952364
 20
551.571722
 30
0.000000
  0
SPLINE
  5
494
330
1F
100
AcDbEntity
  8
0
 62
     7
100
AcDbSpline
210
0.000000
220
0.000000
230
1.0
 70
     8
 71
     3
 72
     8
 73
     4
 42
0.0000000001
 43
0.0000000001
 44
0.0000000001
 12
0.000000
 22
0.000000
 32
0.000000
 13
0.000000
 23
0.000000
 33
0.000000
 40
0.000000
 40
0.000000
 40
0.000000
 40
0.000000
 40
1.000000
 40
1.000000
 40
1.000000
 40
1.000000
 10
750.952364
 20
551.571722
 30
0.000000
 10
752.614314
 20
552.533668
 30
0.000000
 10
754.531978
 20
553.047502
 30
0.000000
 10
756.452244
 20
553.045404
 30
0.000000
  0
SPLINE
  5
495
330
1F
100
AcDbEntity
  8
0
 62
     7
100
AcDbSpline
210
0.000000
220
0.000000
230
1.0
 70
     8
 71
     3
 72
     8
 73
     4
 42
0.0000000001
 43
0.0000000001
 44
0.0000000001
 12
0.000000
 22
0.000000
 32
0.000000
 13
0.000000
 23
0.000000
 33
0.000000
 40
0.000000
 40
0.000000
 40
0.000000
 40
0.000000
 40
1.000000
 40
1.000000
 40
1.000000
 40
1.000000
 10
756.452244
 20
553.045404
 30
0.000000
 10
758.372510
 20
553.047502
 30
0.000000
 10
760.290173
 20
552.533668
 30
0.000000
 10
761.952124
 20
551.571722
 30
0.000000
  0
SPLINE
  5
496
330
1F
100
AcDbEntity
  8
0
 62
     7
100
AcDbSpline
210
0.000000
220
0.000000
230
1.0
 70
     8
 71
     3
 72
     8
 73
     4
 42
0.0000000001
 43
0.0000000001
 44
0.0000000001
 12
0.000000
 22
0.000000
 32
0.000000
 13
0.000000
 23
0.000000
 33
0.000000
 40
0.000000
 40
0.000000
 40
0.000000
 40
0.000000
 40
1.000000
 40
1.000000
 40
1.000000
 40
1.000000
 10
761.952124
 20
551.571722
 30
0.000000
 10
763.616172
 20
550.613409
 30
0.000000
 10
765.019999
 20
549.209587
 30
0.000000
 10
765.978315
 20
547.545546
 30
0.000000
  0
SPLINE
  5
497
330
1F
100
AcDbEntity
  8
0
 62
     7
100
AcDbSpline
210
0.000000
220
0.000000
230
1.0
 70
     8
 71
     3
 72
     8
 73
     4
 42
0.0000000001
 43
0.0000000001
 44
0.0000000001
 12
0.000000
 22
0.000000
 32
0.000000
 13
0.000000
 23
0.000000
 33
0.000000
 40
0.000000
 40
0.000000
 40
0.000000
 40
0.000000
 40
1.000000
 40
1.000000
 40
1.000000
 40
1.000000
 10
765.978315
 20
547.545546
 30
0.000000
 10
766.940265
 20
545.883602
 30
0.000000
 10
767.454102
 20
543.965946
 30
0.000000
 10
767.452004
 20
542.045687
 30
0.000000
  0
SPLINE
  5
498
330
1F
100
AcDbEntity
  8
0
 62
     7
100
AcDbSpline
210
0.000000
220
0.000000
230
1.0
 70
     8
 71
     3
 72
     8
 73
     4
 42
0.0000000001
 43
0.0000000001
 44
0.0000000001
 12
0.000000
 22
0.000000
 32
0.000000
 13
0.000000
 23
0.000000
 33
0.000000
 40
0.000000
 40
0.000000
 40
0.000000
 40
0.000000
 40
1.000000
 40
1.000000
 40
1.000000
 40
1.000000
 10
767.452004
 20
542.045687
 30
0.000000
 10
767.454102
 20
540.125428
 30
0.000000
 10
766.940265
 20
538.207772
 30
0.000000
 10
765.978315
 20
536.545828
 30
0.000000
  0
SPLINE
  5
499
330
1F
100
AcDbEntity
  8
0
 62
     7
100
AcDbSpline
210
0.000000
220
0.000000
230
1.0
 70
     8
 71
     3
 72
     8
 73
     4
 42
0.0000000001
 43
0.0000000001
 44
0.0000000001
 12
0.000000
 22
0.000000
 32
0.000000
 13
0.000000
 23
0.000000
 33
0.000000
 40
0.000000
 40
0.000000
 40
0.000000
 40
0.000000
 40
1.000000
 40
1.000000
 40
1.000000
 40
1.000000
 10
765.978315
 20
536.545828
 30
0.000000
 10
765.019999
 20
534.881786
 30
0.000000
 10
763.616172
 20
533.477965
 30
0.000000
 10
761.952124
 20
532.519652
 30
0.000000
  0
SPLINE
  5
500
330
1F
100
AcDbEntity
  8
0
 62
     7
100
AcDbSpline
210
0.000000
220
0.000000
230
1.0
 70
     8
 71
     3
 72
     8
 73
     4
 42
0.0000000001
 43
0.0000000001
 44
0.0000000001
 12
0.000000
 22
0.000000
 32
0.000000
 13
0.000000
 23
0.000000
 33
0.000000
 40
0.000000
 40
0.000000
 40
0.000000
 40
0.000000
 40
1.000000
 40
1.000000
 40
1.000000
 40
1.000000
 10
761.952124
 20
532.519652
 30
0.000000
 10
760.290173
 20
531.557706
 30
0.000000
 10
758.372510
 20
531.043871
 30
0.000000
 10
756.452244
 20
531.045970
 30
0.000000
  0
SPLINE
  5
501
330
1F
100
AcDbEntity
  8
0
 62
     7
100
AcDbSpline
210
0.000000
220
0.000000
230
1.0
 70
     8
 71
     3
 72
     8
 73
     4
 42
0.0000000001
 43
0.0000000001
 44
0.0000000001
 12
0.000000
 22
0.000000
 32
0.000000
 13
0.000000
 23
0.000000
 33
0.000000
 40
0.000000
 40
0.000000
 40
0.000000
 40
0.000000
 40
1.000000
 40
1.000000
 40
1.000000
 40
1.000000
 10
756.452244
 20
531.045970
 30
0.000000
 10
754.531978
 20
531.043871
 30
0.000000
 10
752.614314
 20
531.557706
 30
0.000000
 10
750.952364
 20
532.519652
 30
0.000000
  0
SPLINE
  5
502
330
1F
100
AcDbEntity
  8
0
 62
     7
100
AcDbSpline
210
0.000000
220
0.000000
230
1.0
 70
     8
 71
     3
 72
     8
 73
     4
 42
0.0000000001
 43
0.0000000001
 44
0.0000000001
 12
0.000000
 22
0.000000
 32
0.000000
 13
0.000000
 23
0.000000
 33
0.000000
 40
0.000000
 40
0.000000
 40
0.000000
 40
0.000000
 40
1.000000
 40
1.000000
 40
1.000000
 40
1.000000
 10
750.952364
 20
532.519652
 30
0.000000
 10
749.288316
 20
533.477965
 30
0.000000
 10
747.884488
 20
534.881786
 30
0.000000
 10
746.926172
 20
536.545828
 30
0.000000
  0
SPLINE
  5
503
330
1F
100
AcDbEntity
  8
0
 62
     7
100
AcDbSpline
210
0.000000
220
0.000000
230
1.0
 70
     8
 71
     3
 72
     8
 73
     4
 42
0.0000000001
 43
0.0000000001
 44
0.0000000001
 12
0.000000
 22
0.000000
 32
0.000000
 13
0.000000
 23
0.000000
 33
0.000000
 40
0.000000
 40
0.000000
 40
0.000000
 40
0.000000
 40
1.000000
 40
1.000000
 40
1.000000
 40
1.000000
 10
746.926172
 20
536.545828
 30
0.000000
 10
745.964222
 20
538.207772
 30
0.000000
 10
745.450386
 20
540.125428
 30
0.000000
 10
745.452484
 20
542.045687
 30
0.000000
  0
SPLINE
  5
504
330
1F
100
AcDbEntity
  8
0
 62
     7
100
AcDbSpline
210
0.000000
220
0.000000
230
1.0
 70
     8
 71
     3
 72
     8
 73
     4
 42
0.0000000001
 43
0.0000000001
 44
0.0000000001
 12
0.000000
 22
0.000000
 32
0.000000
 13
0.000000
 23
0.000000
 33
0.000000
 40
0.000000
 40
0.000000
 40
0.000000
 40
0.000000
 40
1.000000
 40
1.000000
 40
1.000000
 40
1.000000
 10
708.664621
 20
547.938623
 30
0.000000
 10
708.663095
 20
549.335174
 30
0.000000
 10
709.036794
 20
550.729834
 30
0.000000
 10
709.736393
 20
551.938520
 30
0.000000
  0
SPLINE
  5
505
330
1F
100
AcDbEntity
  8
0
 62
     7
100
AcDbSpline
210
0.000000
220
0.000000
230
1.0
 70
     8
 71
     3
 72
     8
 73
     4
 42
0.0000000001
 43
0.0000000001
 44
0.0000000001
 12
0.000000
 22
0.000000
 32
0.000000
 13
0.000000
 23
0.000000
 33
0.000000
 40
0.000000
 40
0.000000
 40
0.000000
 40
0.000000
 40
1.000000
 40
1.000000
 40
1.000000
 40
1.000000
 10
709.736393
 20
551.938520
 30
0.000000
 10
710.433349
 20
553.148732
 30
0.000000
 10
711.454313
 20
554.169694
 30
0.000000
 10
712.664529
 20
554.866648
 30
0.000000
  0
SPLINE
  5
506
330
1F
100
AcDbEntity
  8
0
 62
     7
100
AcDbSpline
210
0.000000
220
0.000000
230
1.0
 70
     8
 71
     3
 72
     8
 73
     4
 42
0.0000000001
 43
0.0000000001
 44
0.0000000001
 12
0.000000
 22
0.000000
 32
0.000000
 13
0.000000
 23
0.000000
 33
0.000000
 40
0.000000
 40
0.000000
 40
0.000000
 40
0.000000
 40
1.000000
 40
1.000000
 40
1.000000
 40
1.000000
 10
712.664529
 20
554.866648
 30
0.000000
 10
713.873219
 20
555.566246
 30
0.000000
 10
715.267882
 20
555.939943
 30
0.000000
 10
716.664438
 20
555.938418
 30
0.000000
  0
SPLINE
  5
507
330
1F
100
AcDbEntity
  8
0
 62
     7
100
AcDbSpline
210
0.000000
220
0.000000
230
1.0
 70
     8
 71
     3
 72
     8
 73
     4
 42
0.0000000001
 43
0.0000000001
 44
0.0000000001
 12
0.000000
 22
0.000000
 32
0.000000
 13
0.000000
 23
0.000000
 33
0.000000
 40
0.000000
 40
0.000000
 40
0.000000
 40
0.000000
 40
1.000000
 40
1.000000
 40
1.000000
 40
1.000000
 10
716.664438
 20
555.938418
 30
0.000000
 10
718.060993
 20
555.939943
 30
0.000000
 10
719.455656
 20
555.566246
 30
0.000000
 10
720.664346
 20
554.866648
 30
0.000000
  0
SPLINE
  5
508
330
1F
100
AcDbEntity
  8
0
 62
     7
100
AcDbSpline
210
0.000000
220
0.000000
230
1.0
 70
     8
 71
     3
 72
     8
 73
     4
 42
0.0000000001
 43
0.0000000001
 44
0.0000000001
 12
0.000000
 22
0.000000
 32
0.000000
 13
0.000000
 23
0.000000
 33
0.000000
 40
0.000000
 40
0.000000
 40
0.000000
 40
0.000000
 40
1.000000
 40
1.000000
 40
1.000000
 40
1.000000
 10
720.664346
 20
554.866648
 30
0.000000
 10
721.874562
 20
554.169694
 30
0.000000
 10
722.895526
 20
553.148732
 30
0.000000
 10
723.592482
 20
551.938520
 30
0.000000
  0
SPLINE
  5
509
330
1F
100
AcDbEntity
  8
0
 62
     7
100
AcDbSpline
210
0.000000
220
0.000000
230
1.0
 70
     8
 71
     3
 72
     8
 73
     4
 42
0.0000000001
 43
0.0000000001
 44
0.0000000001
 12
0.000000
 22
0.000000
 32
0.000000
 13
0.000000
 23
0.000000
 33
0.000000
 40
0.000000
 40
0.000000
 40
0.000000
 40
0.000000
 40
1.000000
 40
1.000000
 40
1.000000
 40
1.000000
 10
723.592482
 20
551.938520
 30
0.000000
 10
724.292082
 20
550.729834
 30
0.000000
 10
724.665780
 20
549.335174
 30
0.000000
 10
724.664255
 20
547.938623
 30
0.000000
  0
SPLINE
  5
510
330
1F
100
AcDbEntity
  8
0
 62
     7
100
AcDbSpline
210
0.000000
220
0.000000
230
1.0
 70
     8
 71
     3
 72
     8
 73
     4
 42
0.0000000001
 43
0.0000000001
 44
0.0000000001
 12
0.000000
 22
0.000000
 32
0.000000
 13
0.000000
 23
0.000000
 33
0.000000
 40
0.000000
 40
0.000000
 40
0.000000
 40
0.000000
 40
1.000000
 40
1.000000
 40
1.000000
 40
1.000000
 10
724.664255
 20
547.938623
 30
0.000000
 10
724.665780
 20
546.542071
 30
0.000000
 10
724.292082
 20
545.147412
 30
0.000000
 10
723.592482
 20
543.938725
 30
0.000000
  0
SPLINE
  5
511
330
1F
100
AcDbEntity
  8
0
 62
     7
100
AcDbSpline
210
0.000000
220
0.000000
230
1.0
 70
     8
 71
     3
 72
     8
 73
     4
 42
0.0000000001
 43
0.0000000001
 44
0.0000000001
 12
0.000000
 22
0.000000
 32
0.000000
 13
0.000000
 23
0.000000
 33
0.000000
 40
0.000000
 40
0.000000
 40
0.000000
 40
0.000000
 40
1.000000
 40
1.000000
 40
1.000000
 40
1.000000
 10
723.592482
 20
543.938725
 30
0.000000
 10
722.895526
 20
542.728513
 30
0.000000
 10
721.874562
 20
541.707551
 30
0.000000
 10
720.664346
 20
541.010597
 30
0.000000
  0
SPLINE
  5
512
330
1F
100
AcDbEntity
  8
0
 62
     7
100
AcDbSpline
210
0.000000
220
0.000000
230
1.0
 70
     8
 71
     3
 72
     8
 73
     4
 42
0.0000000001
 43
0.0000000001
 44
0.0000000001
 12
0.000000
 22
0.000000
 32
0.000000
 13
0.000000
 23
0.000000
 33
0.000000
 40
0.000000
 40
0.000000
 40
0.000000
 40
0.000000
 40
1.000000
 40
1.000000
 40
1.000000
 40
1.000000
 10
720.664346
 20
541.010597
 30
0.000000
 10
719.455656
 20
540.311000
 30
0.000000
 10
718.060993
 20
539.937302
 30
0.000000
 10
716.664438
 20
539.938828
 30
0.000000
  0
SPLINE
  5
513
330
1F
100
AcDbEntity
  8
0
 62
     7
100
AcDbSpline
210
0.000000
220
0.000000
230
1.0
 70
     8
 71
     3
 72
     8
 73
     4
 42
0.0000000001
 43
0.0000000001
 44
0.0000000001
 12
0.000000
 22
0.000000
 32
0.000000
 13
0.000000
 23
0.000000
 33
0.000000
 40
0.000000
 40
0.000000
 40
0.000000
 40
0.000000
 40
1.000000
 40
1.000000
 40
1.000000
 40
1.000000
 10
716.664438
 20
539.938828
 30
0.000000
 10
715.267882
 20
539.937302
 30
0.000000
 10
713.873219
 20
540.311000
 30
0.000000
 10
712.664529
 20
541.010597
 30
0.000000
  0
SPLINE
  5
514
330
1F
100
AcDbEntity
  8
0
 62
     7
100
AcDbSpline
210
0.000000
220
0.000000
230
1.0
 70
     8
 71
     3
 72
     8
 73
     4
 42
0.0000000001
 43
0.0000000001
 44
0.0000000001
 12
0.000000
 22
0.000000
 32
0.000000
 13
0.000000
 23
0.000000
 33
0.000000
 40
0.000000
 40
0.000000
 40
0.000000
 40
0.000000
 40
1.000000
 40
1.000000
 40
1.000000
 40
1.000000
 10
712.664529
 20
541.010597
 30
0.000000
 10
711.454313
 20
541.707551
 30
0.000000
 10
710.433349
 20
542.728513
 30
0.000000
 10
709.736393
 20
543.938725
 30
0.000000
  0
SPLINE
  5
515
330
1F
100
AcDbEntity
  8
0
 62
     7
100
AcDbSpline
210
0.000000
220
0.000000
230
1.0
 70
     8
 71
     3
 72
     8
 73
     4
 42
0.0000000001
 43
0.0000000001
 44
0.0000000001
 12
0.000000
 22
0.000000
 32
0.000000
 13
0.000000
 23
0.000000
 33
0.000000
 40
0.000000
 40
0.000000
 40
0.000000
 40
0.000000
 40
1.000000
 40
1.000000
 40
1.000000
 40
1.000000
 10
709.736393
 20
543.938725
 30
0.000000
 10
709.036794
 20
545.147412
 30
0.000000
 10
708.663095
 20
546.542071
 30
0.000000
 10
708.664621
 20
547.938623
 30
0.000000
 0
ENDSEC
  0
SECTION
  2
OBJECTS
  0
DICTIONARY
  5
C
330
0
100
AcDbDictionary
  3
ACAD_GROUP
350
D
  3
ACAD_LAYOUT
350
1A
  3
ACAD_MLINESTYLE
350
17
  3
ACAD_PLOTSETTINGS
350
19
1001
ACAD
1000
TREAT_AS_HARD
1070
     0
  0
DICTIONARY
  5
46
330
1F
100
AcDbDictionary
  3
ACAD_LAYOUTSELFREF
350
47
  0
DICTIONARY
  5
44
330
1B
100
AcDbDictionary
  3
ACAD_LAYOUTSELFREF
350
45
  0
DICTIONARY
  5
D
102
{ACAD_REACTORS
330
C
102
}
330
C
100
AcDbDictionary
1001
ACAD
1000
TREAT_AS_HARD
1070
     0
  0
DICTIONARY
  5
1A
102
{ACAD_REACTORS
330
C
102
}
330
C
100
AcDbDictionary
1001
ACAD
1000
TREAT_AS_HARD
1070
     0
  0
DICTIONARY
  5
17
102
{ACAD_REACTORS
330
C
102
}
330
C
100
AcDbDictionary
  3
STANDARD
350
18
1001
ACAD
1000
TREAT_AS_HARD
1070
     0
  0
DICTIONARY
  5
19
102
{ACAD_REACTORS
330
C
102
}
330
C
100
AcDbDictionary
1001
ACAD
1000
TREAT_AS_HARD
1070
     0
  0
XRECORD
  5
47
102
{ACAD_REACTORS
330
46
102
}
330
46
100
AcDbXrecord
340
1F
  0
XRECORD
  5
45
102
{ACAD_REACTORS
330
44
102
}
330
44
100
AcDbXrecord
340
1B
  0
MLINESTYLE
  5
18
102
{ACAD_REACTORS
330
17
102
}
330
17
100
AcDbMlineStyle
  2
STANDARD
 70
     0
  3

 62
   256
 51
90.0
 52
90.0
 71
     2
 49
0.5
 62
   256
  6
BYLAYER
 49
-0.5
 62
   256
  6
BYLAYER
  0
ENDSEC
  0
EOF
